<?xml version="1.0" encoding="UTF-8" standalone="no"?>
<!DOCTYPE svg PUBLIC "-//W3C//DTD SVG 1.1//EN" "http://www.w3.org/Graphics/SVG/1.1/DTD/svg11.dtd">
<svg width="100%" height="100%" viewBox="0 0 1408 784" version="1.1" xmlns="http://www.w3.org/2000/svg" xmlns:xlink="http://www.w3.org/1999/xlink" xml:space="preserve" xmlns:serif="http://www.serif.com/" style="fill-rule:evenodd;clip-rule:evenodd;stroke-linecap:round;stroke-linejoin:round;stroke-miterlimit:1.5;">
    <g transform="matrix(1,0,0,1,-17312,0)">
        <g id="Artboard4" transform="matrix(0.414065,0,0,0.391696,10143.4,0)">
            <rect x="17312.8" y="0" width="3400" height="2000" style="fill:none;"/>
            <g transform="matrix(1.61896,0,0,1.71142,16721.4,-923.633)">
                <path d="M506.993,1199.69C482.13,1211.56 463.268,1224.9 463.381,1241.54C463.49,1257.74 475.07,1258.98 473.035,1294.69C480.629,1276.93 481.561,1260.86 476.516,1247.44C469.861,1229.73 498.799,1216.03 526.405,1207.74" style="fill:rgb(101,101,101);"/>
                <g transform="matrix(1.03457,0,0,0.995699,-48.0055,3.18772)">
                    <path d="M1031.39,966.74C1074.73,928.912 1120,892.271 1170.31,857.857C1202.36,835.834 1244.47,838.07 1274.19,863.372C1303.91,888.675 1314.3,931.141 1299.82,968.118C1299.87,968.142 1299.87,968.144 1299.87,968.144" style="fill:rgb(132,132,107);"/>
                </g>
                <g transform="matrix(1.03457,0,0,0.995699,231.995,3.18772)">
                    <path d="M1031.39,966.74C1131.68,924.855 1172.13,906.652 1271.89,881.768C1309.5,872.229 1349.08,885.476 1374.25,916.03C1407.45,956.285 1449.07,1006.78 1449.07,1006.78" style="fill:rgb(132,132,107);"/>
                </g>
                <g transform="matrix(1.01999,-0.173045,-0.166544,-0.981672,433.612,2456.31)">
                    <path d="M1031.39,966.74C1131.68,924.855 1172.13,906.652 1271.89,881.768C1309.5,872.229 1349.08,885.476 1374.25,916.03C1407.45,956.285 1449.07,1006.78 1449.07,1006.78" style="fill:rgb(132,132,107);"/>
                </g>
                <g transform="matrix(1.03457,0,0,0.995699,611.995,83.1877)">
                    <path d="M1031.39,966.74C1139.4,921.632 1187.2,909.126 1303.44,856.185C1313.02,851.999 1323.85,852.181 1333.29,856.687C1342.74,861.193 1349.93,869.61 1353.12,879.888C1364.43,916.235 1379.16,963.707 1379.16,963.707" style="fill:rgb(132,132,107);"/>
                </g>
                <g transform="matrix(1.01621,-0.194021,-0.186732,-0.978033,825.958,2334.05)">
                    <path d="M1031.39,966.74C1139.4,921.632 1187.2,909.126 1303.44,856.185C1313.02,851.999 1323.85,852.181 1333.29,856.687C1342.74,861.193 1349.93,869.61 1353.12,879.888C1364.43,916.235 1379.16,963.707 1379.16,963.707" style="fill:rgb(132,132,107);"/>
                </g>
                <path d="M2080.73,1057.65C2080.73,1057.65 2265.18,969.869 2342.29,933.171C2349.9,929.549 2358.79,929.861 2366.13,934.006C2373.47,938.151 2378.33,945.611 2379.16,953.999C2384.9,1012.26 2396.05,1125.49 2401.92,1185.03C2402.77,1193.64 2399.25,1202.12 2392.54,1207.6C2385.83,1213.08 2376.83,1214.84 2368.55,1212.29C2283.43,1186.07 2081.7,1123.92 2081.7,1123.92L2080.73,1057.65Z" style="fill:rgb(132,132,107);"/>
                <path d="M432.414,1103.06C437.867,1083.23 455.448,1064.93 494.893,1053.49C574.743,1030.32 608.218,1014.41 661.198,999.319C742.48,976.164 826.182,964.034 909.186,956.502C1167.98,933.019 2101.2,1039.82 2101.2,1039.82C2101.2,1039.82 2268.76,1042.29 2269.82,1072.68C2271.61,1123.64 2114.55,1145.42 2114.55,1145.42L1866.18,1185.16C1832.58,1190.54 1799.59,1199.19 1767.68,1211L1394.21,1349.18C1262.43,1397.94 1118.55,1403.56 983.363,1365.22C879.122,1336.29 763.44,1303.78 705.182,1285.84C623.92,1260.81 468.904,1199.69 468.904,1199.69C468.904,1199.69 465.48,1196.02 460.675,1189.81L463.38,1190.18L526.405,1199.69L582.936,1186.79L578.155,1168.36L515.834,1121.81L432.414,1103.06Z" style="fill:rgb(164,144,112);"/>
                <clipPath id="_clip1">
                    <path d="M432.414,1103.06C437.867,1083.23 455.448,1064.93 494.893,1053.49C574.743,1030.32 608.218,1014.41 661.198,999.319C742.48,976.164 826.182,964.034 909.186,956.502C1167.98,933.019 2101.2,1039.82 2101.2,1039.82C2101.2,1039.82 2268.76,1042.29 2269.82,1072.68C2271.61,1123.64 2114.55,1145.42 2114.55,1145.42L1866.18,1185.16C1832.58,1190.54 1799.59,1199.19 1767.68,1211L1394.21,1349.18C1262.43,1397.94 1118.55,1403.56 983.363,1365.22C879.122,1336.29 763.44,1303.78 705.182,1285.84C623.92,1260.81 468.904,1199.69 468.904,1199.69C468.904,1199.69 465.48,1196.02 460.675,1189.81L463.38,1190.18L526.405,1199.69L582.936,1186.79L578.155,1168.36L515.834,1121.81L432.414,1103.06Z"/>
                </clipPath>
                <g clip-path="url(#_clip1)">
                    <path d="M2423.05,1091.9C1716.95,1098.13 1248.85,1382.73 893.822,1210.66L742.675,1380.8L1460.42,1492.15L2264.02,1281.23L2423.05,1091.9Z" style="fill:rgb(215,205,190);"/>
                    <g transform="matrix(1,0,0,1,63.1757,43.3569)">
                        <path d="M2206.66,1026.37C1428.22,1128.34 1277.93,987.779 832.372,1040.92" style="fill:none;stroke:rgb(215,205,190);stroke-width:18.65px;"/>
                    </g>
                    <g transform="matrix(1,0,0,1,-5,0)">
                        <path d="M782.639,1327.38C782.639,1327.38 1047.14,1146.69 839.354,1040.51" style="fill:none;stroke:rgb(138,120,91);stroke-width:12.43px;"/>
                    </g>
                    <g transform="matrix(1,0,0,1,-190,0)">
                        <path d="M776.955,1280.53C776.955,1280.53 1071.32,1301.6 1005.69,1111.67" style="fill:none;stroke:rgb(138,120,91);stroke-width:12.43px;"/>
                    </g>
                </g>
                <path d="M927.333,1199.69C992.758,1177.33 1063.39,1164.72 1138.9,1161.26C1146.99,1160.92 1154.38,1165.83 1157.2,1173.43C1160.02,1181.03 1157.61,1189.58 1151.25,1194.59C1134.29,1208.03 1115.02,1223.23 1098.76,1236.04C1075.51,1254.37 1045.65,1262.11 1016.42,1257.38C986.644,1252.57 953.345,1247.19 953.345,1247.19" style="fill:rgb(132,132,107);"/>
                <path d="M874.742,1318.84C889.733,1323.05 905.778,1324.54 919.716,1331.49C946.514,1344.84 954.202,1391.55 1035.53,1398.96C1044.56,1399.78 981.314,1410.87 938.275,1382.63C918.996,1369.98 897.368,1349.27 883.885,1339.89C875.739,1334.22 866.214,1330.84 857.379,1326.32" style="fill:rgb(132,132,107);"/>
                <ellipse cx="654.462" cy="1066.54" rx="45.144" ry="42.705" style="fill:rgb(255,176,0);"/>
                <g transform="matrix(0.431234,0,0,0.431234,356.372,610.736)">
                    <ellipse cx="654.462" cy="1066.54" rx="45.144" ry="42.705" style="fill:rgb(25,17,0);"/>
                </g>
                <path d="M472.936,1186.31L564.911,1158.9L584.634,1186.99L535.799,1200.92L482.587,1194.99L472.936,1186.31Z" style="stroke:black;stroke-width:1.49px;"/>
                <path d="M437.969,1095.55C467.101,1103.91 568.555,1121.39 593.383,1180.61C594.9,1184.23 593.351,1187.49 589.489,1190.11C586.958,1191.83 577.518,1188.86 575.262,1183.47C557.3,1140.59 459.051,1118.92 430.037,1107.92C425.457,1106.18 433.261,1094.19 437.969,1095.55Z" style="fill:rgb(128,128,128);"/>
                <g transform="matrix(0.855516,0.517777,0.517777,-0.855516,-524.772,1891.93)">
                    <path d="M493.614,1123.99C485.177,1122.45 480.035,1127.6 475.517,1121.95C471.764,1117.26 477.042,1104.73 485.958,1107.11C535.931,1120.41 561.974,1133.82 592.357,1174.16C594.717,1177.29 593.261,1184.16 589.399,1186.79C586.868,1188.5 580.054,1179.95 576.351,1175.44C558.223,1153.34 537.231,1131.97 493.614,1123.99Z" style="fill:rgb(128,128,128);"/>
                </g>
            </g>
        </g>
    </g>
</svg>
