<?xml version="1.0" encoding="UTF-8" standalone="no"?>
<!DOCTYPE svg PUBLIC "-//W3C//DTD SVG 1.1//EN" "http://www.w3.org/Graphics/SVG/1.1/DTD/svg11.dtd">
<svg width="100%" height="100%" viewBox="0 0 1408 784" version="1.1" xmlns="http://www.w3.org/2000/svg" xmlns:xlink="http://www.w3.org/1999/xlink" xml:space="preserve" xmlns:serif="http://www.serif.com/" style="fill-rule:evenodd;clip-rule:evenodd;stroke-linecap:round;stroke-linejoin:round;stroke-miterlimit:1.5;">
    <g transform="matrix(1,0,0,1,-24667.4,-23.2334)">
        <g id="Artboard13" transform="matrix(1,0,0,1,69.5389,23.2334)">
            <rect x="24597.8" y="0" width="1407.82" height="783.393" style="fill:none;"/>
            <g transform="matrix(0.595812,0,0,0.873877,22151,-621.032)">
                <path d="M4877.83,990.301L4985.99,847.702C5094.73,950.352 5267.19,930.693 5365.22,983.352C5400.06,1002.07 5379.75,1023.28 5366.4,1048.66L4877.83,990.301Z" style="fill:rgb(224,208,101);"/>
            </g>
            <g transform="matrix(0.595812,0,0,0.873877,22079.6,-644.409)">
                <path d="M5521.23,1077.41L5860.95,914.395C5815.49,930.943 5775.86,1119.92 5827.44,1139.54C5868.04,1154.98 5521.23,1077.41 5521.23,1077.41Z" style="fill:rgb(224,208,101);"/>
            </g>
            <g transform="matrix(0.595812,0,0,0.873877,22161,-621.032)">
                <path d="M5739.14,1118.05L5776.83,1098.68L5774.97,1129.14L5739.14,1118.05Z" style="fill:rgb(224,208,101);"/>
            </g>
            <g transform="matrix(0.595812,0,0,0.873877,22190.8,-612.293)">
                <path d="M5739.14,1118.05L5776.83,1098.68L5774.97,1129.14L5739.14,1118.05Z" style="fill:rgb(224,208,101);"/>
            </g>
            <g transform="matrix(0.595812,0,0,0.873877,22223,-606.176)">
                <path d="M5739.14,1118.05L5776.83,1098.68L5774.97,1129.14L5739.14,1118.05Z" style="fill:rgb(224,208,101);"/>
            </g>
            <g transform="matrix(0.595812,0,0,0.873877,22249.2,-602.68)">
                <path d="M5739.14,1118.05L5776.83,1098.68L5774.97,1129.14L5739.14,1118.05Z" style="fill:rgb(224,208,101);"/>
            </g>
            <g transform="matrix(0.595812,0,0,0.873877,22279,-596.12)">
                <path d="M5739.14,1118.05L5776.83,1098.68L5774.97,1129.14L5739.14,1118.05Z" style="fill:rgb(224,208,101);"/>
            </g>
            <g transform="matrix(0.595812,0,0,-0.873877,22279,1404.61)">
                <path d="M5739.14,1118.05L5776.83,1098.68L5774.97,1129.14L5739.14,1118.05Z" style="fill:rgb(224,208,101);"/>
            </g>
            <g transform="matrix(0.595812,0,0,-0.873877,22249.2,1419.97)">
                <path d="M5739.14,1118.05L5776.83,1098.68L5774.97,1129.14L5739.14,1118.05Z" style="fill:rgb(224,208,101);"/>
            </g>
            <g transform="matrix(0.595812,0,0,-0.873877,22219.4,1431.55)">
                <path d="M5739.14,1118.05L5776.83,1098.68L5774.97,1129.14L5739.14,1118.05Z" style="fill:rgb(224,208,101);"/>
            </g>
            <g transform="matrix(0.770579,5.53703e-17,-3.77516e-17,-0.678075,21174.7,1230.66)">
                <path d="M5739.14,1118.05L5776.83,1098.68L5774.97,1129.14L5739.14,1118.05Z" style="fill:rgb(224,208,101);"/>
            </g>
            <g transform="matrix(0.770579,5.53703e-17,-3.77516e-17,-0.678075,21142.5,1242.89)">
                <path d="M5739.14,1118.05L5776.83,1098.68L5774.97,1129.14L5739.14,1118.05Z" style="fill:rgb(224,208,101);"/>
            </g>
            <g transform="matrix(0.770579,5.53703e-17,-3.77516e-17,-0.678075,21036.8,1290.34)">
                <path d="M5720.37,1113.07L5884.89,963.908C5826.44,1053.68 5813.51,1131.35 5871.34,1190.18L5720.37,1113.07Z" style="fill:rgb(224,208,101);"/>
            </g>
            <g transform="matrix(0.595812,0,0,0.873877,22161,-621.032)">
                <path d="M6003.8,1159.59C6003.8,1159.59 6214.77,1015.93 6312.77,949.2C6316.9,946.39 6323.39,946.012 6328.16,948.305C6332.92,950.597 6334.58,954.894 6332.08,958.486C6300.45,1003.95 6250.46,1075.8 6217.42,1123.3C6196.53,1153.33 6199.54,1188.55 6225.42,1216.72C6265.36,1260.21 6325.4,1325.58 6365.27,1368.97C6368.4,1372.39 6367.42,1376.86 6362.94,1379.5C6358.47,1382.13 6351.84,1382.15 6347.33,1379.54C6235.99,1314.89 6006.5,1181.66 6006.5,1181.66L6003.8,1159.59Z" style="fill:rgb(224,208,101);"/>
            </g>
            <g transform="matrix(0.595812,1.45932e-16,-2.14038e-16,0.873877,22161,-621.032)">
                <path d="M4258.86,1171.75C4331.03,1114.59 4579.13,962.898 4994.9,983.352C5250.64,995.934 5543.92,1083.96 5735.33,1114.76C5809.95,1126.77 5930.21,1146.7 6026.69,1155.62C6068.25,1159.47 6189.51,1096.98 6190.15,1166.27C6190.88,1245.21 6058.5,1175.88 6028.66,1181.66C5963.66,1194.26 5895.08,1222.58 5795.23,1247.82C5633.17,1288.78 5512.66,1335.85 5267.79,1368.75C5007.75,1403.68 4802.92,1361.17 4570.8,1329.88C4417.55,1309.23 4291.61,1271.48 4279.71,1237.62C4276.73,1229.13 4417.55,1239.73 4413.9,1230.12C4407.66,1213.69 4240.43,1186.34 4258.86,1171.75Z" style="fill:rgb(163,188,200);"/>
                <clipPath id="_clip1">
                    <path d="M4258.86,1171.75C4331.03,1114.59 4579.13,962.898 4994.9,983.352C5250.64,995.934 5543.92,1083.96 5735.33,1114.76C5809.95,1126.77 5930.21,1146.7 6026.69,1155.62C6068.25,1159.47 6189.51,1096.98 6190.15,1166.27C6190.88,1245.21 6058.5,1175.88 6028.66,1181.66C5963.66,1194.26 5895.08,1222.58 5795.23,1247.82C5633.17,1288.78 5512.66,1335.85 5267.79,1368.75C5007.75,1403.68 4802.92,1361.17 4570.8,1329.88C4417.55,1309.23 4291.61,1271.48 4279.71,1237.62C4276.73,1229.13 4417.55,1239.73 4413.9,1230.12C4407.66,1213.69 4240.43,1186.34 4258.86,1171.75Z"/>
                </clipPath>
                <g clip-path="url(#_clip1)">
                    <path d="M4712.28,1085.53C4712.28,1085.53 4788.33,1203.63 4645.44,1358.33" style="fill:none;stroke:black;stroke-opacity:0.23;stroke-width:13.72px;"/>
                    <path d="M4618.11,1123.92C4618.11,1123.92 4746.31,1302.99 4575.14,1293.46C4459.02,1286.99 4398.45,1230.12 4398.45,1230.12" style="fill:none;stroke:black;stroke-opacity:0.23;stroke-width:13.72px;"/>
                </g>
            </g>
            <g transform="matrix(1.11265,0,0,0.873877,19706.2,-574.751)">
                <path d="M4757.75,1102.79C4757.75,1102.79 4994.02,1099.75 4994.72,1123.92C4995.92,1165.35 4787.89,1173.91 4787.89,1173.91C4792.3,1152.92 4798.12,1133.25 4757.75,1102.79Z" style="fill:rgb(224,208,101);"/>
            </g>
            <g transform="matrix(0.974675,0,0,0.873877,20553,-621.032)">
                <path d="M4254.45,1168.51L4360.05,1229C4360.05,1229 4348.4,1230.76 4344.65,1229.88C4316.85,1223.37 4211.72,1192.3 4254.45,1168.51Z" style="fill:rgb(90,113,124);"/>
            </g>
            <g transform="matrix(0.581739,-0.329896,0.464809,0.65888,21694.4,1086.65)">
                <path d="M4254.45,1168.51L4365.15,1223.84C4365.15,1223.84 4205.97,1195.51 4254.45,1168.51Z" style="fill:rgb(90,113,124);"/>
            </g>
            <g transform="matrix(0.769449,0.15429,-0.271599,1.35448,21711.8,-2014.99)">
                <path d="M4845.89,1352.1C4872.42,1388.02 4903.29,1415.98 4947.4,1438.7C4947.4,1438.7 4952.89,1424.24 4952.44,1413.33C4952,1402.41 4935.96,1392.2 4931.67,1362.26C4931.59,1361.75 4903.9,1366.08 4868.57,1342.43" style="fill:rgb(224,208,101);"/>
            </g>
            <g transform="matrix(0.495976,-0.0975145,0.143024,0.727448,22485.7,-9.16745)">
                <circle cx="4449.86" cy="1131.45" r="55.747" style="fill:rgb(204,196,163);"/>
            </g>
            <g transform="matrix(0.246292,-0.0484237,0.071023,0.361236,23675.5,183.273)">
                <circle cx="4449.86" cy="1131.45" r="55.747"/>
            </g>
        </g>
    </g>
</svg>
