<?xml version="1.0" encoding="utf-8"?>
<!-- Generator: Adobe Illustrator 16.0.0, SVG Export Plug-In . SVG Version: 6.00 Build 0)  -->
<!DOCTYPE svg PUBLIC "-//W3C//DTD SVG 1.1//EN" "http://www.w3.org/Graphics/SVG/1.1/DTD/svg11.dtd">
<svg version="1.1" id="Layer_1" xmlns="http://www.w3.org/2000/svg" xmlns:xlink="http://www.w3.org/1999/xlink" x="0px" y="0px"
	 width="595.279px" height="841.891px" viewBox="0 0 595.279 841.891" enable-background="new 0 0 595.279 841.891"
	 xml:space="preserve">
<path fill="#F0BE07" d="M362.213,147.59h0.461c3.154,6.522,5.195,13.484,7.861,20.197c7.805,22.454,14.49,45.544,16.199,69.271
	c1.186,20.284-1.046,40.78-6.899,60.302c-6.533,22.171-17.201,42.95-29.004,62.891c17.19-6.767,32.963-17.412,44.361-31.696
	c10.115-12.151,16.918-26.479,22.209-41.122c7.064-19.995,10.933-40.867,14.202-61.705c1.22,4.607,2.117,9.285,2.938,13.974
	c3.505,20.975,6.138,42.172,5.87,63.457c0.277,25.734-2.668,51.746-11.205,76.212c-7.142,20.854-18.724,40.197-33.405,56.924
	c-6.655,8.018-14.48,15.002-21.938,22.297c-24.196,23.433-48.448,46.805-72.6,70.277c-37.186-35.803-74.286-71.688-111.298-107.658
	c1.619-8.812,3.374-17.591,4.948-26.408c2.699-14.404,4.712-29.09,10.245-42.814c4.15-10.955,11.123-20.741,19.142-29.378
	c9.379-9.312,21.43-15.426,31.635-23.787c14.345-11.091,24.934-26.18,32.013-42.46c9.649-21.812,13.749-45.375,17.14-68.722
	c4.133,17.602,6.421,35.59,7.523,53.595c0.472,19.315-1.676,39.066-9.503,57c-3.481,9.051-8.744,17.275-13.405,25.767
	c12.781-11.853,24.774-24.526,35.408-38.229c16.184-20.936,27.491-45.343,32.923-70.952
	C363.141,192.797,363.49,170.039,362.213,147.59"/>
<path fill="#1755B3" d="M169.576,461.859l128.994,130.609l128.952-130.457l51.832,52.577L298.571,694.135L115.762,512.332
	L169.576,461.859z"/>
</svg>
