<?xml version="1.0" encoding="UTF-8" standalone="no"?>
<!DOCTYPE svg PUBLIC "-//W3C//DTD SVG 1.1//EN" "http://www.w3.org/Graphics/SVG/1.1/DTD/svg11.dtd">
<svg width="100%" height="100%" viewBox="0 0 1408 784" version="1.1" xmlns="http://www.w3.org/2000/svg" xmlns:xlink="http://www.w3.org/1999/xlink" xml:space="preserve" xmlns:serif="http://www.serif.com/" style="fill-rule:evenodd;clip-rule:evenodd;stroke-linejoin:round;stroke-miterlimit:2;">
    <g transform="matrix(1,0,0,1,-17267.2,-1006.25)">
        <g id="Artboard8" transform="matrix(1,0,0,1,-5873.62,1006.25)">
            <rect x="23140.8" y="0" width="1407.82" height="783.393" style="fill:none;"/>
            <g transform="matrix(1.44911,0,0,1.44911,22995.2,-1991.8)">
                <path d="M433.704,1755.6L344.624,1469.01L348.362,1467.85L437.442,1754.44L433.704,1755.6Z" style="fill:rgb(47,61,68);fill-rule:nonzero;"/>
                <path d="M351.693,1608.09L351.693,1590.48L626.814,1628.22L615.071,1644.16L351.693,1608.09Z" style="fill:rgb(185,189,170);fill-rule:nonzero;"/>
                <path d="M381.89,1793.34L351.693,1608.09L615.071,1644.16L615.071,1811.91L381.89,1793.34Z" style="fill:rgb(219,223,196);fill-rule:nonzero;"/>
                <rect x="394.554" y="1656.97" width="30.967" height="41.39" style="fill:rgb(47,61,68);fill-rule:nonzero;"/>
                <path d="M401.823,1662.57L425.521,1662.57L425.521,1656.97L394.554,1656.97L394.554,1698.36L401.823,1698.36L401.823,1662.57Z" style="fill:rgb(30,39,43);fill-rule:nonzero;"/>
                <rect x="447.831" y="1656.97" width="30.967" height="41.39" style="fill:rgb(47,61,68);fill-rule:nonzero;"/>
                <path d="M455.101,1662.57L478.798,1662.57L478.798,1656.97L447.831,1656.97L447.831,1698.36L455.101,1698.36L455.101,1662.57Z" style="fill:rgb(30,39,43);fill-rule:nonzero;"/>
                <rect x="494.27" y="1656.97" width="30.966" height="41.39" style="fill:rgb(47,61,68);fill-rule:nonzero;"/>
                <path d="M501.539,1662.57L525.236,1662.57L525.236,1656.97L494.27,1656.97L494.27,1698.36L501.539,1698.36L501.539,1662.57Z" style="fill:rgb(30,39,43);fill-rule:nonzero;"/>
                <rect x="541.244" y="1656.97" width="30.967" height="41.39" style="fill:rgb(47,61,68);fill-rule:nonzero;"/>
                <path d="M548.513,1662.57L572.211,1662.57L572.211,1656.97L541.244,1656.97L541.244,1698.36L548.513,1698.36L548.513,1662.57Z" style="fill:rgb(30,39,43);fill-rule:nonzero;"/>
                <path d="M590.326,1640.77L590.326,1769.96L615.071,1769.96L615.071,1644.16L590.326,1640.77Z" style="fill:rgb(185,189,170);fill-rule:nonzero;"/>
                <path d="M346.942,1746.01L343.027,1745.99L344.535,1468.42L348.45,1468.44L346.942,1746.01Z" style="fill:rgb(47,61,68);fill-rule:nonzero;"/>
                <path d="M264.177,1731.97L260.265,1731.86L267.737,1468.38L271.65,1468.49L264.177,1731.97Z" style="fill:rgb(47,61,68);fill-rule:nonzero;"/>
                <path d="M208.067,1714.08L204.277,1713.1L267.799,1467.94L271.588,1468.92L208.067,1714.08Z" style="fill:rgb(47,61,68);fill-rule:nonzero;"/>
                <path d="M976.155,1827.01L972.24,1827.01L972.24,1712.37L788.698,1609.86L306.379,1418.67L307.821,1415.03L790.381,1606.32L790.494,1606.38L976.155,1710.07L976.155,1827.01Z" style="fill:rgb(47,61,68);fill-rule:nonzero;"/>
                <path d="M805.948,1780.88L973.233,1709.45L977.427,1717.13L832.405,1782.56L805.948,1780.88Z" style="fill:rgb(47,61,68);fill-rule:nonzero;"/>
                <rect x="267.816" y="1464.66" width="80.715" height="7.55" style="fill:rgb(47,61,68);fill-rule:nonzero;"/>
                <rect x="304.164" y="1412.38" width="5.872" height="395.48" style="fill:rgb(47,61,68);fill-rule:nonzero;"/>
                <path d="M982.169,1713.59C982.169,1719.37 977.482,1724.05 971.701,1724.05C965.92,1724.05 961.233,1719.37 961.233,1713.59C961.233,1707.81 965.92,1703.12 971.701,1703.12C977.482,1703.12 982.169,1707.81 982.169,1713.59Z" style="fill:rgb(47,61,68);fill-rule:nonzero;"/>
                <path d="M624.794,1804.93L770.75,1614.47L795.915,1617.32L805.948,1807.96L789.204,1807.96L780.256,1631.81L643.248,1804.93L624.794,1804.93Z" style="fill:rgb(47,61,68);fill-rule:nonzero;"/>
                <path d="M974.058,1815.41L958.4,1838.62L989.996,1838.62L974.058,1815.41Z" style="fill:rgb(30,39,43);fill-rule:nonzero;"/>
                <path d="M974.198,1815.61L964.271,1838.62L974.198,1838.62L974.058,1817.09L974.198,1815.61Z" style="fill:rgb(59,91,67);fill-rule:nonzero;"/>
                <path d="M199.122,1709.45C199.122,1709.45 186.201,1764.82 217.366,1815.15C238.642,1849.51 282.89,1877.23 282.89,1877.23L769.619,1877.23C769.619,1877.23 795.461,1870.52 816.328,1843.67C837.196,1816.83 840.19,1793.34 840.19,1793.34C840.19,1793.34 775.01,1802.78 533.003,1776.56C260.021,1746.99 199.122,1709.45 199.122,1709.45Z" style="fill:rgb(219,223,196);fill-rule:nonzero;"/>
                <path d="M532.999,1776.56C260.015,1746.99 199.118,1709.45 199.118,1709.45C199.118,1709.45 196.632,1720.1 196.472,1736.32C233.651,1749.65 299.182,1769.16 387.758,1780.04C504.292,1794.35 750.389,1799.25 838.592,1800.59C839.844,1796.01 840.186,1793.34 840.186,1793.34C840.186,1793.34 775.006,1802.78 532.999,1776.56Z" style="fill:rgb(185,189,170);fill-rule:nonzero;"/>
                <path d="M838.508,1794.69C838.669,1793.81 838.729,1793.34 838.729,1793.34C838.729,1793.34 835.016,1793.88 826.082,1794.34C830.43,1794.48 834.572,1794.59 838.508,1794.69Z" style="fill:rgb(137,145,103);fill-rule:nonzero;"/>
                <path d="M283.007,1815.15C264.232,1784.83 261.459,1752.68 262.221,1731.91C212.883,1718.83 197.661,1709.45 197.661,1709.45C197.661,1709.45 184.74,1764.82 215.904,1815.15C237.18,1849.51 281.428,1877.23 281.428,1877.23L348.531,1877.23C348.531,1877.23 304.283,1849.51 283.007,1815.15Z" style="fill:rgb(185,189,170);fill-rule:nonzero;"/>
                <path d="M189.166,1684.37L182.456,1709.45C182.456,1709.45 280.878,1759.31 503.446,1780.56C726.015,1801.81 851.279,1793.34 851.279,1793.34L851.279,1774.97C851.279,1774.97 634.727,1777.71 509.038,1760.43C255.234,1725.52 189.166,1684.37 189.166,1684.37Z" style="fill:rgb(255,239,44);fill-rule:nonzero;"/>
                <path d="M261.961,1711.84C207.506,1695.93 189.166,1684.51 189.166,1684.51L182.456,1709.59C182.456,1709.59 205.258,1721.14 253.722,1735.49C256.316,1727.51 258.276,1719.32 261.961,1711.84Z" style="fill:rgb(230,215,42);fill-rule:nonzero;"/>
                <path d="M468.334,1847.14C372.053,1843.68 267.055,1819.56 210.81,1804.82C212.542,1808.27 214.453,1811.72 216.575,1815.15C237.851,1849.51 282.099,1877.23 282.099,1877.23L768.829,1877.23C768.829,1877.23 791.968,1871.22 812.136,1847.83C738.262,1849 574.181,1850.95 468.334,1847.14Z" style="fill:rgb(255,239,44);fill-rule:nonzero;"/>
                <path d="M216.458,1815.03C237.732,1849.4 281.979,1877.11 281.981,1877.11L349.083,1877.11C349.082,1877.11 311.803,1853.76 289.229,1823.35C258.521,1816.95 231.46,1810.33 210.81,1804.93C212.51,1808.31 214.383,1811.68 216.458,1815.03Z" style="fill:rgb(230,215,42);fill-rule:nonzero;"/>
                <path d="M797.009,1617.32C797.009,1624.41 791.261,1630.16 784.171,1630.16C777.081,1630.16 771.333,1624.41 771.333,1617.32C771.333,1610.23 777.081,1604.48 784.171,1604.48C791.261,1604.48 797.009,1610.23 797.009,1617.32Z" style="fill:rgb(255,231,44);fill-rule:nonzero;"/>
                <path d="M789.204,1617.32C789.204,1620.1 786.951,1622.35 784.171,1622.35C781.391,1622.35 779.138,1620.1 779.138,1617.32C779.138,1614.54 781.391,1612.28 784.171,1612.28C786.951,1612.28 789.204,1614.54 789.204,1617.32Z" style="fill:rgb(47,61,68);fill-rule:nonzero;"/>
                <path d="M351.693,1777.3C341.93,1777.3 333.986,1785.24 333.986,1795.01C333.986,1804.77 341.93,1812.71 351.693,1812.71C361.456,1812.71 369.4,1804.77 369.4,1795.01C369.4,1785.24 361.456,1777.3 351.693,1777.3ZM351.693,1831.15C331.763,1831.15 315.549,1814.94 315.549,1795.01C315.549,1775.08 331.763,1758.86 351.693,1758.86C371.623,1758.86 387.838,1775.08 387.838,1795.01C387.838,1814.94 371.623,1831.15 351.693,1831.15Z" style="fill:rgb(255,79,44);fill-rule:nonzero;"/>
                <path d="M320.122,1797.21C320.122,1797.21 320.265,1781.89 327.506,1773.83C336.119,1764.23 346.209,1763.24 346.209,1763.24L346.455,1771.86C346.455,1771.86 346.407,1771.85 346.313,1771.85C345.469,1771.85 340.914,1772.19 334.396,1778.99C328.735,1784.9 329.474,1794.75 329.474,1794.75L320.122,1797.21Z" style="fill:rgb(251,162,131);fill-rule:nonzero;"/>
                <path d="M447.831,1790.25C438.067,1790.25 430.124,1798.2 430.124,1807.96C430.124,1817.72 438.067,1825.67 447.831,1825.67C457.594,1825.67 465.538,1817.72 465.538,1807.96C465.538,1798.2 457.594,1790.25 447.831,1790.25ZM447.831,1844.11C427.901,1844.11 411.686,1827.89 411.686,1807.96C411.686,1788.03 427.901,1771.82 447.831,1771.82C467.761,1771.82 483.976,1788.03 483.976,1807.96C483.976,1827.89 467.761,1844.11 447.831,1844.11Z" style="fill:rgb(255,79,44);fill-rule:nonzero;"/>
                <path d="M416.26,1810.16C416.26,1810.16 416.404,1794.85 423.643,1786.78C432.257,1777.18 442.348,1776.2 442.348,1776.2L442.594,1784.81L442.452,1784.81C441.609,1784.81 437.053,1785.15 430.534,1791.95C424.873,1797.86 425.612,1807.7 425.612,1807.7L416.26,1810.16Z" style="fill:rgb(251,162,131);fill-rule:nonzero;"/>
            </g>
        </g>
    </g>
</svg>
