<?xml version="1.0" encoding="UTF-8" standalone="no"?>
<!DOCTYPE svg PUBLIC "-//W3C//DTD SVG 1.1//EN" "http://www.w3.org/Graphics/SVG/1.1/DTD/svg11.dtd">
<svg width="100%" height="100%" viewBox="0 0 1408 784" version="1.1" xmlns="http://www.w3.org/2000/svg" xmlns:xlink="http://www.w3.org/1999/xlink" xml:space="preserve" xmlns:serif="http://www.serif.com/" style="fill-rule:evenodd;clip-rule:evenodd;stroke-linejoin:round;stroke-miterlimit:2;">
    <g transform="matrix(1,0,0,1,-21638.2,-1006.25)">
        <g id="Artboard11" transform="matrix(1,0,0,1,-5873.62,1006.25)">
            <rect x="27511.8" y="0" width="1407.82" height="783.393" style="fill:none;"/>
            <g transform="matrix(1.10063,0,0,1.10063,26231.5,-1368.32)">
                <rect x="2170.27" y="1366.27" width="84.18" height="5.87" style="fill:rgb(30,39,43);fill-rule:nonzero;"/>
                <rect x="2210.58" y="1320.97" width="5.84" height="220.6" style="fill:rgb(30,39,43);fill-rule:nonzero;"/>
                <path d="M1428.6,1513.42C1427.67,1513.42 1426.92,1512.67 1426.92,1511.75L1426.88,1408.43C1426.88,1407.5 1427.63,1406.75 1428.56,1406.75C1429.49,1406.75 1430.24,1407.5 1430.24,1408.43L1430.28,1511.74C1430.28,1512.67 1429.53,1513.42 1428.6,1513.42Z" style="fill:rgb(30,39,43);fill-rule:nonzero;"/>
                <path d="M1788.28,1631.96C1786.73,1631.96 1785.48,1630.71 1785.48,1629.17L1785.44,1419.33C1785.44,1417.79 1786.69,1416.54 1788.24,1416.54C1789.78,1416.54 1791.04,1417.79 1791.04,1419.33L1791.07,1629.17C1791.07,1630.71 1789.82,1631.96 1788.28,1631.96Z" style="fill:rgb(30,39,43);fill-rule:nonzero;"/>
                <path d="M1348.37,1580.33L1508.83,1580.33L1428.6,1513.56L1348.37,1580.33ZM1512.71,1583.13L1344.5,1583.13C1343.91,1583.13 1343.39,1582.76 1343.19,1582.2C1342.98,1581.65 1343.15,1581.03 1343.61,1580.65L1427.71,1510.67C1428.22,1510.24 1428.98,1510.24 1429.49,1510.67L1513.49,1580.57C1513.86,1580.82 1514.11,1581.24 1514.11,1581.73C1514.11,1582.5 1513.48,1583.13 1512.71,1583.13Z" style="fill:rgb(30,39,43);fill-rule:nonzero;"/>
                <path d="M1472.96,1636.45C1475.91,1639.81 1478.68,1643.31 1481.33,1646.91C1485.44,1643.98 1489.55,1641.04 1493.65,1638.09C1490.86,1633.96 1488.06,1629.83 1485.27,1625.7C1481.12,1629.23 1477.01,1632.8 1472.96,1636.45Z" style="fill:rgb(147,192,206);fill-rule:nonzero;"/>
                <path d="M1485.98,1625.11C1488.78,1629.26 1491.59,1633.4 1494.39,1637.55C1503.14,1631.25 1511.86,1624.91 1520.59,1618.58C1517.4,1613.99 1514.17,1609.42 1510.91,1604.88C1502.49,1611.49 1494.15,1618.2 1485.98,1625.11Z" style="fill:rgb(147,192,206);fill-rule:nonzero;"/>
                <path d="M1545.98,1709.44C1539.05,1714.3 1532.16,1719.24 1525.29,1724.2C1528.54,1728.33 1531.76,1732.49 1534.98,1736.65C1542.07,1731.77 1549.18,1726.91 1556.31,1722.09C1552.89,1717.86 1549.45,1713.64 1545.98,1709.44Z" style="fill:rgb(147,192,206);fill-rule:nonzero;"/>
                <path d="M1534.23,1737.17C1531.01,1733.01 1527.8,1728.85 1524.55,1724.73C1519.57,1728.33 1514.6,1731.94 1509.63,1735.54C1512.55,1739.73 1515.38,1743.99 1518.16,1748.28C1523.51,1744.56 1528.86,1740.86 1534.23,1737.17Z" style="fill:rgb(147,192,206);fill-rule:nonzero;"/>
                <path d="M1541.92,1695.4C1540.54,1696.32 1539.17,1697.24 1537.79,1698.14C1540.59,1701.48 1543.38,1704.84 1546.15,1708.2C1546.71,1707.81 1547.27,1707.42 1547.83,1707.03C1545.68,1703.23 1543.68,1699.34 1541.92,1695.4Z" style="fill:rgb(147,192,206);fill-rule:nonzero;"/>
                <path d="M1521.33,1618.05L1521.35,1618.04C1519.86,1610.64 1518.64,1604.21 1517.77,1599.54C1515.72,1601.13 1513.67,1602.71 1511.63,1604.31C1514.9,1608.87 1518.13,1613.45 1521.33,1618.05Z" style="fill:rgb(147,192,206);fill-rule:nonzero;"/>
                <path d="M1501.96,1650.49C1499.37,1646.6 1496.77,1642.72 1494.16,1638.85C1490.07,1641.79 1485.97,1644.72 1481.87,1647.65C1484.89,1651.78 1487.75,1656.03 1490.55,1660.34C1494.24,1656.93 1498.06,1653.66 1501.96,1650.49Z" style="fill:rgb(147,192,206);fill-rule:nonzero;"/>
                <path d="M1515.15,1711.7C1521.11,1707.87 1527.07,1704.05 1533,1700.19C1530.39,1695.59 1527.72,1691.03 1524.99,1686.51C1518.75,1691.56 1512.46,1696.53 1506.13,1701.46C1509.22,1704.8 1512.22,1708.22 1515.15,1711.7Z" style="fill:rgb(147,192,206);fill-rule:nonzero;"/>
                <path d="M1491.89,1712.46C1494.52,1715.52 1497.07,1718.64 1499.54,1721.81C1504.46,1718.58 1509.42,1715.38 1514.38,1712.2C1511.46,1708.74 1508.47,1705.35 1505.4,1702.02C1500.91,1705.52 1496.41,1709 1491.89,1712.46Z" style="fill:rgb(147,192,206);fill-rule:nonzero;"/>
                <path d="M1525.39,1685.02C1525.12,1684.7 1524.84,1684.38 1524.56,1684.06C1524.78,1684.42 1525.01,1684.78 1525.23,1685.15L1525.39,1685.02Z" style="fill:rgb(147,192,206);fill-rule:nonzero;"/>
                <path d="M1524.61,1633.71C1523.61,1629.07 1522.67,1624.57 1521.81,1620.34C1521.58,1620.01 1521.35,1619.67 1521.12,1619.33C1512.38,1625.66 1503.66,1632 1494.9,1638.31C1497.51,1642.17 1500.1,1646.03 1502.68,1649.91C1509.74,1644.21 1517.1,1638.87 1524.61,1633.71Z" style="fill:rgb(147,192,206);fill-rule:nonzero;"/>
                <path d="M1526.1,1684.44C1529.19,1681.94 1532.25,1679.41 1535.3,1676.86C1531.54,1664.21 1527.89,1648.86 1524.82,1634.68C1517.41,1639.77 1510.16,1645.06 1503.19,1650.67C1509.48,1660.12 1515.67,1669.63 1521.64,1679.28C1523.14,1680.99 1524.62,1682.72 1526.1,1684.44Z" style="fill:rgb(147,192,206);fill-rule:nonzero;"/>
                <path d="M1525.71,1685.93C1528.45,1690.48 1531.14,1695.06 1533.77,1699.68C1534.66,1699.11 1535.54,1698.53 1536.42,1697.95C1532.97,1693.84 1529.49,1689.77 1525.99,1685.71C1525.9,1685.78 1525.8,1685.86 1525.71,1685.93Z" style="fill:rgb(147,192,206);fill-rule:nonzero;"/>
                <path d="M1461.62,1735.54C1455.4,1740.28 1449.23,1745.07 1443.2,1750.03C1439.74,1752.88 1436.18,1755.63 1432.65,1758.43L1450.21,1758.49C1456.06,1753.3 1462.11,1748.38 1468.32,1743.66C1466.15,1740.9 1463.92,1738.19 1461.62,1735.54Z" style="fill:rgb(147,192,206);fill-rule:nonzero;"/>
                <path d="M1508.37,1735.33C1505.45,1731.16 1502.45,1727.05 1499.33,1723.03C1495.06,1725.84 1490.81,1728.69 1486.61,1731.59C1489.49,1735.99 1492.32,1740.42 1495.14,1744.87C1499.56,1741.7 1503.96,1738.52 1508.37,1735.33Z" style="fill:rgb(147,192,206);fill-rule:nonzero;"/>
                <path d="M1534.79,1737.89C1529.4,1741.6 1524.03,1745.31 1518.66,1749.04C1520.74,1752.26 1522.78,1755.5 1524.82,1758.75L1531.46,1758.77C1535.7,1755.81 1540,1752.92 1544.33,1750.08C1541.11,1746.05 1537.95,1741.97 1534.79,1737.89Z" style="fill:rgb(147,192,206);fill-rule:nonzero;"/>
                <path d="M1479.44,1757.11C1479.78,1757.6 1480.12,1758.1 1480.47,1758.6L1502.8,1758.67C1500.16,1754.51 1497.53,1750.33 1494.9,1746.17C1489.77,1749.85 1484.61,1753.5 1479.44,1757.11Z" style="fill:rgb(147,192,206);fill-rule:nonzero;"/>
                <path d="M1517.41,1748.8C1514.63,1744.51 1511.8,1740.26 1508.89,1736.08C1504.48,1739.28 1500.06,1742.47 1495.63,1745.65C1498.31,1749.88 1500.98,1754.13 1503.67,1758.37C1508.24,1755.17 1512.83,1751.98 1517.41,1748.8Z" style="fill:rgb(147,192,206);fill-rule:nonzero;"/>
                <path d="M1468.88,1744.38C1462.97,1748.88 1457.19,1753.57 1451.59,1758.5L1475.71,1758.58C1476.52,1758.01 1477.34,1757.45 1478.16,1756.88C1475.15,1752.65 1472.08,1748.47 1468.88,1744.38Z" style="fill:rgb(147,192,206);fill-rule:nonzero;"/>
                <path d="M1524.73,1723.48C1531.59,1718.52 1538.47,1713.59 1545.4,1708.73C1542.62,1705.36 1539.83,1702 1537.02,1698.65C1536.09,1699.26 1535.16,1699.87 1534.23,1700.48C1535.62,1702.94 1537,1705.41 1538.35,1707.89C1538.63,1708.41 1537.84,1708.87 1537.55,1708.35C1536.21,1705.88 1534.84,1703.43 1533.46,1700.98C1527.57,1704.82 1521.65,1708.61 1515.74,1712.4C1518.79,1716.05 1521.78,1719.75 1524.73,1723.48Z" style="fill:rgb(147,192,206);fill-rule:nonzero;"/>
                <path d="M1469.61,1743.82C1472.81,1747.92 1475.89,1752.12 1478.91,1756.36C1484.1,1752.74 1489.26,1749.08 1494.41,1745.4C1491.59,1740.94 1488.75,1736.5 1485.87,1732.1C1480.36,1735.9 1474.93,1739.79 1469.61,1743.82Z" style="fill:rgb(147,192,206);fill-rule:nonzero;"/>
                <path d="M1500.1,1722.53C1503.21,1726.54 1506.2,1730.64 1509.11,1734.79C1514.07,1731.2 1519.02,1727.6 1523.99,1724.01C1521.03,1720.27 1518.03,1716.56 1514.96,1712.9C1510,1716.09 1505.03,1719.29 1500.1,1722.53Z" style="fill:rgb(147,192,206);fill-rule:nonzero;"/>
                <path d="M1479.93,1721.61C1482.02,1724.66 1484.08,1727.73 1486.11,1730.82C1490.29,1727.94 1494.52,1725.11 1498.77,1722.31C1496.31,1719.16 1493.78,1716.06 1491.16,1713.02C1487.42,1715.89 1483.68,1718.75 1479.93,1721.61Z" style="fill:rgb(147,192,206);fill-rule:nonzero;"/>
                <path d="M1537.19,1697.44C1538.65,1696.48 1540.09,1695.52 1541.54,1694.55C1540.52,1692.24 1539.59,1689.9 1538.76,1687.56C1537.7,1684.59 1536.64,1681.31 1535.59,1677.82C1532.64,1680.28 1529.68,1682.71 1526.7,1685.13C1530.22,1689.21 1533.73,1693.31 1537.19,1697.44Z" style="fill:rgb(147,192,206);fill-rule:nonzero;"/>
                <path d="M1357.5,1652.84C1353.27,1654.9 1349.06,1656.98 1344.86,1659.1C1346.9,1662.79 1348.9,1666.5 1350.84,1670.24C1354.96,1668.34 1359.09,1666.47 1363.22,1664.6C1361.2,1660.74 1359.32,1656.81 1357.5,1652.84Z" style="fill:rgb(147,192,206);fill-rule:nonzero;"/>
                <path d="M1324.01,1684.29C1323.37,1684.63 1322.74,1684.96 1322.1,1685.3C1319.65,1692.21 1316.98,1698.56 1314.19,1704.38C1319.6,1701.79 1325,1699.2 1330.4,1696.58C1328.36,1692.43 1326.25,1688.32 1324.01,1684.29Z" style="fill:rgb(147,192,206);fill-rule:nonzero;"/>
                <path d="M1350.43,1671.44C1345.3,1673.8 1340.2,1676.21 1335.13,1678.68C1337.19,1682.87 1339.19,1687.11 1341.15,1691.36C1346.27,1688.85 1351.38,1686.33 1356.49,1683.78C1354.56,1679.62 1352.53,1675.51 1350.43,1671.44Z" style="fill:rgb(147,192,206);fill-rule:nonzero;"/>
                <path d="M1344.19,1700.21C1343.03,1697.67 1341.87,1695.13 1340.71,1692.59C1337.68,1694.07 1334.65,1695.54 1331.62,1697.01C1332.85,1699.52 1334.05,1702.05 1335.25,1704.59C1338.22,1703.11 1341.2,1701.65 1344.19,1700.21Z" style="fill:rgb(147,192,206);fill-rule:nonzero;"/>
                <path d="M1330.81,1697.41C1325.06,1700.19 1319.31,1702.94 1313.55,1705.7C1311,1710.92 1308.36,1715.7 1305.7,1720.07C1315.16,1714.82 1324.75,1709.81 1334.43,1704.99C1333.24,1702.45 1332.04,1699.92 1330.81,1697.41Z" style="fill:rgb(147,192,206);fill-rule:nonzero;"/>
                <path d="M1476.98,1723.87C1472.12,1727.58 1467.23,1731.27 1462.35,1734.98C1464.65,1737.63 1466.88,1740.35 1469.04,1743.1C1474.39,1739.05 1479.84,1735.15 1485.37,1731.34C1483.34,1728.26 1481.3,1725.2 1479.22,1722.16C1478.47,1722.73 1477.73,1723.3 1476.98,1723.87Z" style="fill:rgb(147,192,206);fill-rule:nonzero;"/>
                <path d="M1323.56,1683.49C1323.39,1683.19 1323.22,1682.89 1323.05,1682.58C1322.88,1683.07 1322.72,1683.55 1322.55,1684.03C1322.89,1683.85 1323.23,1683.67 1323.56,1683.49Z" style="fill:rgb(147,192,206);fill-rule:nonzero;"/>
                <path d="M1345.68,1626.44C1347.85,1630.23 1349.82,1634.13 1351.7,1638.07C1356.55,1635.81 1361.41,1633.55 1366.23,1631.25C1364.13,1627.5 1361.96,1623.78 1359.71,1620.11C1355.01,1622.18 1350.32,1624.27 1345.68,1626.44Z" style="fill:rgb(147,192,206);fill-rule:nonzero;"/>
                <path d="M1443.49,1748.6C1449.32,1744 1455.19,1739.44 1461.07,1734.91C1459.9,1733.57 1458.71,1732.24 1457.5,1730.94C1457.1,1730.5 1457.75,1729.85 1458.15,1730.29C1459.39,1731.63 1460.6,1732.98 1461.8,1734.35C1466.33,1730.87 1470.87,1727.39 1475.41,1723.92C1476.51,1723.08 1477.61,1722.25 1478.7,1721.41C1471.31,1710.67 1463.48,1700.27 1454.7,1690.53C1454.31,1690.1 1454.96,1689.45 1455.35,1689.89C1464.15,1699.65 1472.01,1710.09 1479.42,1720.86C1483.14,1718.02 1486.86,1715.18 1490.57,1712.33C1489.38,1710.96 1488.18,1709.61 1486.95,1708.27C1486.55,1707.83 1487.2,1707.19 1487.6,1707.62C1488.86,1708.99 1490.09,1710.38 1491.3,1711.77C1495.81,1708.31 1500.3,1704.84 1504.78,1701.35C1503.28,1699.74 1501.76,1698.14 1500.21,1696.57C1499.8,1696.14 1500.45,1695.5 1500.86,1695.92C1502.44,1697.52 1503.98,1699.15 1505.51,1700.79C1511.88,1695.82 1518.22,1690.81 1524.51,1685.73C1523.31,1683.75 1522.11,1681.78 1520.9,1679.82L1520.83,1679.75L1520.73,1679.56C1514.82,1670.02 1508.7,1660.61 1502.48,1651.25C1498.57,1654.43 1494.75,1657.71 1491.06,1661.12C1496.83,1670.07 1502.33,1679.21 1508.31,1687.96C1508.64,1688.45 1507.84,1688.91 1507.51,1688.42C1501.57,1679.73 1496.11,1670.64 1490.38,1661.76C1485.33,1666.46 1480.5,1671.4 1475.96,1676.65C1475.57,1677.1 1474.93,1676.45 1475.31,1676C1479.89,1670.7 1484.77,1665.71 1489.87,1660.97C1487.05,1656.63 1484.17,1652.34 1481.12,1648.18C1473.55,1653.57 1465.94,1658.91 1458.29,1664.18C1457.8,1664.52 1457.34,1663.72 1457.83,1663.39C1465.46,1658.13 1473.04,1652.81 1480.59,1647.44C1477.96,1643.87 1475.2,1640.4 1472.27,1637.06C1468.59,1640.39 1464.95,1643.78 1461.38,1647.23C1460.95,1647.64 1460.3,1646.99 1460.73,1646.58C1464.32,1643.11 1467.97,1639.72 1471.66,1636.38C1469.82,1634.31 1467.92,1632.3 1465.92,1630.35C1465.5,1629.94 1466.15,1629.29 1466.58,1629.71C1468.58,1631.66 1470.49,1633.69 1472.35,1635.77C1476.43,1632.09 1480.57,1628.49 1484.76,1624.94C1478.69,1615.97 1472.63,1607 1466.7,1597.95C1466.37,1597.45 1467.17,1597 1467.49,1597.49C1473.4,1606.49 1479.42,1615.43 1485.46,1624.35C1493.63,1617.44 1501.96,1610.74 1510.38,1604.13C1507.35,1599.91 1504.29,1595.71 1501.21,1591.51L1339.34,1590.96C1339.34,1590.96 1338.19,1608.66 1334.86,1630.7C1338.01,1629.09 1341.19,1627.53 1344.39,1626.03C1343.1,1623.83 1341.76,1621.66 1340.31,1619.55C1339.98,1619.06 1340.77,1618.6 1341.1,1619.09C1342.57,1621.22 1343.93,1623.41 1345.22,1625.64C1349.9,1623.45 1354.62,1621.36 1359.35,1619.27C1359.43,1619.02 1359.75,1618.86 1360,1618.98C1370.51,1614.35 1381.04,1609.76 1391.2,1604.41C1391.72,1604.13 1392.18,1604.92 1391.66,1605.2C1381.53,1610.54 1371.03,1615.12 1360.55,1619.74C1362.8,1623.4 1364.97,1627.11 1367.06,1630.85C1373.94,1627.56 1380.77,1624.18 1387.47,1620.55C1387.99,1620.27 1388.45,1621.06 1387.93,1621.34C1381.22,1624.97 1374.39,1628.36 1367.51,1631.65C1369.76,1635.69 1371.92,1639.77 1374.01,1643.89C1377.5,1642.23 1380.99,1640.56 1384.47,1638.9C1385,1638.64 1385.47,1639.44 1384.93,1639.69C1381.43,1641.37 1377.93,1643.03 1374.43,1644.7C1376.31,1648.42 1378.13,1652.17 1379.9,1655.94C1380.15,1656.47 1379.36,1656.94 1379.11,1656.4C1377.33,1652.6 1375.49,1648.84 1373.6,1645.1C1368.5,1647.53 1363.4,1649.97 1358.32,1652.44C1360.15,1656.41 1362.03,1660.36 1364.06,1664.22C1368.64,1662.14 1373.23,1660.07 1377.8,1657.97C1378.33,1657.72 1378.79,1658.52 1378.26,1658.76C1373.67,1660.87 1369.08,1662.95 1364.49,1665.03C1364.95,1665.9 1365.42,1666.78 1365.91,1667.64C1366.2,1668.16 1365.4,1668.62 1365.11,1668.1C1364.61,1667.21 1364.13,1666.31 1363.65,1665.41C1359.51,1667.28 1355.38,1669.15 1351.26,1671.05C1353.36,1675.11 1355.39,1679.21 1357.31,1683.37C1374.57,1674.75 1391.72,1665.88 1408.65,1656.61C1409.17,1656.32 1409.63,1657.12 1409.11,1657.4C1392.15,1666.69 1374.98,1675.57 1357.69,1684.2C1357.96,1684.79 1358.23,1685.38 1358.5,1685.97C1358.74,1686.51 1357.95,1686.97 1357.71,1686.44C1357.43,1685.83 1357.15,1685.22 1356.87,1684.61C1351.77,1687.16 1346.65,1689.68 1341.53,1692.19C1342.69,1694.73 1343.85,1697.27 1345.01,1699.81C1370.07,1687.73 1395.66,1676.66 1421.1,1665.46C1421.64,1665.23 1422.1,1666.02 1421.56,1666.26C1396.09,1677.47 1370.48,1688.55 1345.39,1700.65C1347.73,1705.81 1350.08,1710.96 1352.52,1716.06C1352.77,1716.6 1351.98,1717.06 1351.73,1716.52C1349.28,1711.4 1346.92,1706.22 1344.56,1701.04C1341.58,1702.49 1338.61,1703.94 1335.64,1705.42C1339.04,1712.65 1342.35,1719.93 1345.87,1727.06C1346.13,1727.59 1345.34,1728.05 1345.08,1727.52C1341.55,1720.37 1338.23,1713.07 1334.82,1705.81C1324.67,1710.87 1314.62,1716.13 1304.72,1721.66C1288.79,1747.21 1272.67,1757.88 1272.67,1757.88L1430.96,1758.43C1435.12,1755.08 1439.36,1751.86 1443.49,1748.6Z" style="fill:rgb(147,192,206);fill-rule:nonzero;"/>
                <path d="M1576.96,1746.38C1579.43,1749.49 1581.91,1752.59 1584.38,1755.69C1584.74,1756.15 1584.09,1756.8 1583.73,1756.34C1578.42,1749.66 1573.11,1742.99 1567.79,1736.33C1560.38,1740.93 1552.98,1745.55 1545.67,1750.31C1547.97,1753.18 1550.31,1756.03 1552.68,1758.85L1589.18,1758.97C1589.18,1758.97 1584.07,1754.22 1576.96,1746.38Z" style="fill:rgb(147,192,206);fill-rule:nonzero;"/>
                <path d="M1334.69,1631.82C1334.34,1634.12 1333.96,1636.47 1333.56,1638.85C1334.7,1640.9 1335.84,1642.96 1336.99,1645C1341.6,1642.79 1346.24,1640.62 1350.88,1638.46C1348.99,1634.51 1347.01,1630.62 1344.84,1626.83C1341.43,1628.43 1338.04,1630.08 1334.69,1631.82Z" style="fill:rgb(147,192,206);fill-rule:nonzero;"/>
                <path d="M1366.68,1632.05C1361.84,1634.36 1356.97,1636.63 1352.1,1638.9C1354.09,1643.11 1356,1647.37 1357.94,1651.61C1363.01,1649.15 1368.1,1646.71 1373.19,1644.28C1371.09,1640.16 1368.93,1636.08 1366.68,1632.05Z" style="fill:rgb(147,192,206);fill-rule:nonzero;"/>
                <path d="M1327.95,1666.94C1327.9,1666.84 1327.84,1666.74 1327.78,1666.63C1327.74,1666.79 1327.7,1666.95 1327.66,1667.1C1327.76,1667.05 1327.86,1666.99 1327.95,1666.94Z" style="fill:rgb(147,192,206);fill-rule:nonzero;"/>
                <path d="M1333.9,1678.27C1332.14,1674.72 1330.31,1671.21 1328.4,1667.74C1328.05,1667.93 1327.7,1668.13 1327.34,1668.33C1326.13,1672.9 1324.82,1677.26 1323.43,1681.44C1323.74,1681.98 1324.06,1682.52 1324.36,1683.07C1327.52,1681.43 1330.7,1679.83 1333.9,1678.27Z" style="fill:rgb(147,192,206);fill-rule:nonzero;"/>
                <path d="M1544.9,1750.8C1540.92,1753.41 1536.97,1756.06 1533.06,1758.78L1551.48,1758.84C1549.26,1756.19 1547.07,1753.51 1544.9,1750.8Z" style="fill:rgb(147,192,206);fill-rule:nonzero;"/>
                <path d="M1556.89,1722.8C1549.75,1727.63 1542.64,1732.49 1535.54,1737.37C1538.7,1741.46 1541.88,1745.54 1545.1,1749.59C1552.4,1744.83 1559.8,1740.21 1567.21,1735.61C1563.78,1731.33 1560.34,1727.06 1556.89,1722.8Z" style="fill:rgb(147,192,206);fill-rule:nonzero;"/>
                <path d="M1546.73,1708.91C1550.16,1713.07 1553.57,1717.25 1556.97,1721.45C1553.94,1717.11 1551,1712.55 1548.29,1707.83C1547.77,1708.19 1547.25,1708.55 1546.73,1708.91Z" style="fill:rgb(147,192,206);fill-rule:nonzero;"/>
                <path d="M1331.81,1648.55C1330.72,1654.16 1329.49,1659.83 1328.11,1665.35C1328.32,1665.74 1328.54,1666.11 1328.76,1666.5C1333.67,1663.83 1338.62,1661.25 1343.6,1658.72C1341.29,1654.54 1338.95,1650.37 1336.61,1646.2C1335.01,1646.98 1333.41,1647.76 1331.81,1648.55Z" style="fill:rgb(147,192,206);fill-rule:nonzero;"/>
                <path d="M1478.68,1757.63C1478.23,1757.95 1477.76,1758.27 1477.31,1758.59L1479.35,1758.59C1479.13,1758.27 1478.91,1757.95 1478.68,1757.63Z" style="fill:rgb(147,192,206);fill-rule:nonzero;"/>
                <path d="M1517.91,1749.56C1513.54,1752.6 1509.18,1755.64 1504.82,1758.68L1523.73,1758.75C1521.81,1755.67 1519.87,1752.61 1517.91,1749.56Z" style="fill:rgb(147,192,206);fill-rule:nonzero;"/>
                <path d="M1351.27,1639.29C1346.65,1641.44 1342.03,1643.6 1337.44,1645.8C1339.77,1649.97 1342.11,1654.13 1344.42,1658.3C1348.63,1656.17 1352.87,1654.08 1357.12,1652.01C1355.17,1647.77 1353.26,1643.5 1351.27,1639.29Z" style="fill:rgb(147,192,206);fill-rule:nonzero;"/>
                <path d="M1331.21,1696.19C1334.25,1694.72 1337.29,1693.24 1340.32,1691.75C1338.37,1687.51 1336.37,1683.28 1334.3,1679.09C1331.12,1680.65 1327.96,1682.24 1324.81,1683.87C1327.05,1687.91 1329.17,1692.03 1331.21,1696.19Z" style="fill:rgb(147,192,206);fill-rule:nonzero;"/>
                <path d="M1511.1,1603.57C1513.25,1601.88 1515.42,1600.21 1517.58,1598.53C1516.77,1594.15 1516.32,1591.57 1516.32,1591.57L1502.35,1591.52C1505.28,1595.52 1508.2,1599.54 1511.1,1603.57Z" style="fill:rgb(147,192,206);fill-rule:nonzero;"/>
                <path d="M1344.05,1659.52C1339.07,1662.05 1334.12,1664.63 1329.21,1667.3C1331.12,1670.78 1332.95,1674.3 1334.72,1677.86C1339.79,1675.39 1344.89,1672.99 1350.01,1670.62C1348.07,1666.9 1346.07,1663.2 1344.05,1659.52Z" style="fill:rgb(147,192,206);fill-rule:nonzero;"/>
                <path d="M1333.31,1640.3C1332.91,1642.65 1332.48,1645.03 1332.02,1647.42C1333.4,1646.74 1334.78,1646.07 1336.16,1645.4C1335.21,1643.7 1334.26,1642 1333.31,1640.3Z" style="fill:rgb(147,192,206);fill-rule:nonzero;"/>
                <path d="M1589.18,1759.81C1588.99,1759.81 1588.79,1759.74 1588.63,1759.6C1588.25,1759.27 1550.98,1726.26 1537.96,1687.83C1531.48,1668.69 1517.2,1599.95 1515.64,1592.4L1340.08,1591.8C1339.23,1598.35 1332.87,1647.04 1325.18,1683.25C1316.92,1722.19 1273.64,1758.17 1273.2,1758.53C1272.84,1758.82 1272.31,1758.77 1272.02,1758.41C1271.73,1758.06 1271.78,1757.53 1272.13,1757.23C1272.57,1756.88 1315.4,1721.26 1323.54,1682.9C1331.74,1644.27 1338.44,1591.38 1338.5,1590.85C1338.56,1590.43 1338.91,1590.12 1339.34,1590.12L1516.32,1590.73C1516.72,1590.73 1517.06,1591.01 1517.14,1591.4C1517.3,1592.15 1532.75,1667.23 1539.55,1687.29C1552.42,1725.3 1589.36,1758.01 1589.74,1758.34C1590.08,1758.65 1590.12,1759.18 1589.81,1759.52C1589.65,1759.71 1589.42,1759.81 1589.18,1759.81Z" style="fill:rgb(112,147,155);fill-rule:nonzero;"/>
                <rect x="1335.48" y="1581.72" width="186.16" height="9.7" style="fill:rgb(30,39,43);fill-rule:nonzero;"/>
                <path d="M1426.53,1405.63L1425.38,1415.41L1539.77,1465.19L1550.21,1447.29L1559.9,1432.75L1536.42,1432.75L1426.53,1405.63Z" style="fill:rgb(30,39,43);fill-rule:nonzero;"/>
                <path d="M1559.9,1432.75L1564.83,1459.59L1793.76,1418.86L1793.76,1414.45L1559.9,1432.75Z" style="fill:rgb(30,39,43);fill-rule:nonzero;"/>
                <path d="M1452.36,1826.5C1449.37,1823.15 1536.42,1432.75 1536.42,1432.75L1559.9,1432.75L1693,1806.31L1663.92,1815.26L1550.21,1458.48L1477.4,1826.5L1452.36,1826.5Z" style="fill:rgb(30,39,43);fill-rule:nonzero;"/>
                <path d="M2194.15,1566.96L2189.58,1454L2251.74,1454C2251.74,1454 2249.98,1489.62 2270.11,1510.4C2290.24,1531.17 2315.96,1537.88 2315.96,1537.88L2315.96,1582.62L2194.15,1566.96Z" style="fill:rgb(137,145,103);fill-rule:nonzero;"/>
                <rect x="1867.47" y="1546.83" width="488.2" height="20.13" style="fill:rgb(30,39,43);fill-rule:nonzero;"/>
                <path d="M1942.41,1806.31L1947.44,1689.99L1882.57,1566.96L2346.72,1566.96L2355.67,1806.31L1942.41,1806.31Z" style="fill:rgb(137,145,103);fill-rule:nonzero;"/>
                <path d="M1882.57,1566.96L1947.44,1689.99L1939.05,1800.72L1992.74,1800.72L1992.74,1689.99L1950.24,1566.96L1882.57,1566.96Z" style="fill:rgb(176,183,132);fill-rule:nonzero;"/>
                <path d="M1218.07,1689.99C1218.07,1689.99 1264.64,1754.86 1280.29,1798.48C1294.19,1837.19 1306.02,1874.53 1306.02,1874.53L2365.17,1874.53L2387.54,1763.81C2387.54,1763.81 2160.5,1770.52 1845.1,1762.69C1529.7,1754.86 1218.07,1689.99 1218.07,1689.99Z" style="fill:rgb(60,63,124);fill-rule:nonzero;"/>
                <path d="M2387.26,1765.23L2387.54,1763.81C2387.54,1763.81 2310.86,1766.07 2184.73,1766.44C2270.63,1766.68 2340.14,1765.97 2387.26,1765.23Z" style="fill:rgb(42,46,86);fill-rule:nonzero;"/>
                <path d="M1296.42,1704.66C1247.11,1696.04 1218.07,1689.99 1218.07,1689.99C1218.07,1689.99 1264.64,1754.86 1280.29,1798.48C1294.19,1837.19 1306.02,1874.53 1306.02,1874.53L1374.24,1874.53C1374.24,1874.53 1362.41,1837.19 1348.52,1798.48C1337.47,1767.7 1311.03,1726.34 1296.42,1704.66Z" style="fill:rgb(42,46,86);fill-rule:nonzero;"/>
                <path d="M1928.99,1591.57L1963.66,1678.81L2026.29,1678.81L2000.56,1591.57L1928.99,1591.57Z" style="fill:rgb(47,61,68);fill-rule:nonzero;"/>
                <path d="M2026.29,1591.57L2052.01,1678.81L2111.57,1678.81L2098.99,1591.57L2026.29,1591.57Z" style="fill:rgb(47,61,68);fill-rule:nonzero;"/>
                <path d="M2125.83,1591.57L2138.13,1678.81L2201.36,1678.81L2192.94,1591.57L2125.83,1591.57Z" style="fill:rgb(47,61,68);fill-rule:nonzero;"/>
                <path d="M2216.42,1591.57L2219.81,1678.81L2292.48,1678.81L2286.14,1591.57L2216.42,1591.57Z" style="fill:rgb(47,61,68);fill-rule:nonzero;"/>
                <path d="M1948.28,1604.15L2004.27,1604.15L2000.56,1591.57L1928.99,1591.57L1963.66,1678.81L1977.95,1678.81L1948.28,1604.15Z" style="fill:rgb(30,39,43);fill-rule:nonzero;"/>
                <path d="M2100.8,1604.15L2098.99,1591.57L2026.29,1591.57L2052.01,1678.81L2067.59,1678.81L2045.58,1604.15L2100.8,1604.15Z" style="fill:rgb(30,39,43);fill-rule:nonzero;"/>
                <path d="M2145.12,1604.15L2194.15,1604.15L2192.94,1591.57L2125.83,1591.57L2138.13,1678.81L2155.65,1678.81L2145.12,1604.15Z" style="fill:rgb(30,39,43);fill-rule:nonzero;"/>
                <path d="M2235.71,1604.15L2287.05,1604.15L2286.14,1591.57L2216.42,1591.57L2219.81,1678.81L2238.62,1678.81L2235.71,1604.15Z" style="fill:rgb(30,39,43);fill-rule:nonzero;"/>
                <rect x="1957.27" y="1699.26" width="387.52" height="7.55" style="fill:rgb(176,183,132);fill-rule:nonzero;"/>
                <path d="M2378.19,1810.14L1270.05,1774.93C1272.87,1780.64 1275.44,1786.26 1277.64,1791.64L2374.88,1826.5L2378.19,1810.14Z" style="fill:rgb(176,183,132);fill-rule:nonzero;"/>
                <path d="M1277.64,1791.64L1346.74,1793.83C1344.63,1788.47 1342.13,1782.86 1339.35,1777.13L1270.05,1774.93C1272.87,1780.64 1275.44,1786.26 1277.64,1791.64Z" style="fill:rgb(137,145,103);fill-rule:nonzero;"/>
                <rect x="2189.58" y="1454" width="33.62" height="92.83" style="fill:rgb(176,183,132);fill-rule:nonzero;"/>
                <path d="M1711.91,1696.35L1864.65,1696.35L1788.28,1632.8L1711.91,1696.35ZM1872.39,1701.94L1704.18,1701.94C1703,1701.94 1701.95,1701.21 1701.55,1700.1C1701.15,1698.99 1701.48,1697.75 1702.39,1697L1786.49,1627.02C1787.52,1626.15 1789.03,1626.15 1790.07,1627.02L1874.02,1696.87C1874.72,1697.38 1875.18,1698.21 1875.18,1699.15C1875.18,1700.69 1873.93,1701.94 1872.39,1701.94Z" style="fill:rgb(30,39,43);fill-rule:nonzero;"/>
                <path d="M1832.63,1753.87C1835.58,1757.23 1838.36,1760.73 1841.01,1764.33C1845.12,1761.4 1849.23,1758.46 1853.33,1755.51C1850.54,1751.38 1847.74,1747.25 1844.95,1743.12C1840.79,1746.65 1836.68,1750.22 1832.63,1753.87Z" style="fill:rgb(147,192,206);fill-rule:nonzero;"/>
                <path d="M1845.65,1742.53C1848.46,1746.68 1851.27,1750.82 1854.07,1754.97C1862.82,1748.67 1871.54,1742.33 1880.27,1736C1877.07,1731.41 1873.85,1726.84 1870.59,1722.3C1862.16,1728.91 1853.82,1735.62 1845.65,1742.53Z" style="fill:rgb(147,192,206);fill-rule:nonzero;"/>
                <path d="M1905.66,1826.86C1898.73,1831.72 1891.84,1836.66 1884.97,1841.62C1888.22,1845.75 1891.44,1849.91 1894.65,1854.07C1901.75,1849.19 1908.86,1844.33 1915.99,1839.51C1912.56,1835.28 1909.12,1831.06 1905.66,1826.86Z" style="fill:rgb(147,192,206);fill-rule:nonzero;"/>
                <path d="M1893.9,1854.59C1890.69,1850.43 1887.48,1846.28 1884.23,1842.15C1879.25,1845.75 1874.28,1849.36 1869.31,1852.96C1872.23,1857.15 1875.06,1861.41 1877.84,1865.7C1883.19,1861.98 1888.54,1858.28 1893.9,1854.59Z" style="fill:rgb(147,192,206);fill-rule:nonzero;"/>
                <path d="M1901.59,1812.82C1900.22,1813.74 1898.85,1814.66 1897.47,1815.57C1900.27,1818.91 1903.05,1822.26 1905.83,1825.62C1906.39,1825.23 1906.95,1824.84 1907.51,1824.45C1905.36,1820.65 1903.36,1816.76 1901.59,1812.82Z" style="fill:rgb(147,192,206);fill-rule:nonzero;"/>
                <path d="M1881.01,1735.47L1881.03,1735.46C1879.54,1728.06 1878.31,1721.63 1877.45,1716.96C1875.4,1718.55 1873.35,1720.13 1871.31,1721.73C1874.57,1726.29 1877.81,1730.87 1881.01,1735.47Z" style="fill:rgb(147,192,206);fill-rule:nonzero;"/>
                <path d="M1861.64,1767.91C1859.05,1764.02 1856.45,1760.14 1853.84,1756.27C1849.75,1759.21 1845.65,1762.14 1841.54,1765.07C1844.56,1769.2 1847.43,1773.46 1850.22,1777.76C1853.92,1774.36 1857.73,1771.08 1861.64,1767.91Z" style="fill:rgb(147,192,206);fill-rule:nonzero;"/>
                <path d="M1874.83,1829.12C1880.79,1825.29 1886.75,1821.47 1892.68,1817.61C1890.07,1813.01 1887.39,1808.46 1884.66,1803.93C1878.43,1808.98 1872.13,1813.95 1865.81,1818.88C1868.9,1822.22 1871.9,1825.64 1874.83,1829.12Z" style="fill:rgb(147,192,206);fill-rule:nonzero;"/>
                <path d="M1851.57,1829.89C1854.2,1832.94 1856.75,1836.06 1859.22,1839.23C1864.14,1836 1869.09,1832.8 1874.05,1829.62C1871.14,1826.16 1868.15,1822.77 1865.08,1819.45C1860.59,1822.94 1856.08,1826.42 1851.57,1829.89Z" style="fill:rgb(147,192,206);fill-rule:nonzero;"/>
                <path d="M1885.07,1802.44C1884.79,1802.12 1884.52,1801.8 1884.24,1801.48C1884.46,1801.84 1884.69,1802.2 1884.91,1802.57L1885.07,1802.44Z" style="fill:rgb(147,192,206);fill-rule:nonzero;"/>
                <path d="M1884.29,1751.14C1883.29,1746.5 1882.35,1741.99 1881.49,1737.76C1881.26,1737.43 1881.03,1737.09 1880.79,1736.75C1872.06,1743.08 1863.33,1749.43 1854.58,1755.73C1857.18,1759.59 1859.78,1763.45 1862.35,1767.33C1869.42,1761.64 1876.78,1756.29 1884.29,1751.14Z" style="fill:rgb(147,192,206);fill-rule:nonzero;"/>
                <path d="M1885.78,1801.86C1888.86,1799.36 1891.93,1796.83 1894.98,1794.29C1891.21,1781.63 1887.57,1766.28 1884.5,1752.1C1877.09,1757.19 1869.83,1762.48 1862.87,1768.09C1869.15,1777.54 1875.35,1787.06 1881.32,1796.7C1882.82,1798.41 1884.3,1800.14 1885.78,1801.86Z" style="fill:rgb(147,192,206);fill-rule:nonzero;"/>
                <path d="M1885.39,1803.35C1888.13,1807.9 1890.82,1812.48 1893.45,1817.11C1894.33,1816.53 1895.22,1815.95 1896.1,1815.37C1892.65,1811.26 1889.17,1807.19 1885.67,1803.13C1885.57,1803.2 1885.48,1803.28 1885.39,1803.35Z" style="fill:rgb(147,192,206);fill-rule:nonzero;"/>
                <path d="M1821.3,1852.96C1815.08,1857.7 1808.9,1862.49 1802.88,1867.45C1799.41,1870.3 1795.85,1873.06 1792.33,1875.85L1809.89,1875.91C1815.74,1870.72 1821.79,1865.8 1827.99,1861.08C1825.82,1858.32 1823.6,1855.61 1821.3,1852.96Z" style="fill:rgb(147,192,206);fill-rule:nonzero;"/>
                <path d="M1868.04,1852.75C1865.13,1848.58 1862.13,1844.48 1859.01,1840.45C1854.74,1843.27 1850.49,1846.11 1846.28,1849.01C1849.16,1853.41 1852,1857.85 1854.81,1862.29C1859.23,1859.13 1863.64,1855.94 1868.04,1852.75Z" style="fill:rgb(147,192,206);fill-rule:nonzero;"/>
                <path d="M1894.46,1855.31C1889.08,1859.02 1883.71,1862.73 1878.34,1866.46C1880.42,1869.68 1882.46,1872.92 1884.5,1876.17L1891.14,1876.19C1895.38,1873.23 1899.67,1870.34 1904.01,1867.51C1900.79,1863.47 1897.62,1859.39 1894.46,1855.31Z" style="fill:rgb(147,192,206);fill-rule:nonzero;"/>
                <path d="M1839.11,1874.53C1839.46,1875.02 1839.8,1875.52 1840.15,1876.02L1862.47,1876.09C1859.84,1871.93 1857.21,1867.76 1854.58,1863.59C1849.44,1867.27 1844.29,1870.92 1839.11,1874.53Z" style="fill:rgb(147,192,206);fill-rule:nonzero;"/>
                <path d="M1877.09,1866.22C1874.31,1861.93 1871.48,1857.69 1868.57,1853.5C1864.15,1856.7 1859.74,1859.89 1855.3,1863.07C1857.99,1867.31 1860.66,1871.55 1863.34,1875.79C1867.92,1872.6 1872.5,1869.41 1877.09,1866.22Z" style="fill:rgb(147,192,206);fill-rule:nonzero;"/>
                <path d="M1828.56,1861.8C1822.64,1866.3 1816.87,1870.99 1811.27,1875.92L1835.38,1876C1836.2,1875.44 1837.02,1874.87 1837.83,1874.3C1834.83,1870.07 1831.75,1865.89 1828.56,1861.8Z" style="fill:rgb(147,192,206);fill-rule:nonzero;"/>
                <path d="M1884.4,1840.9C1891.27,1835.94 1898.15,1831.01 1905.08,1826.15C1902.3,1822.78 1899.51,1819.42 1896.7,1816.07C1895.77,1816.68 1894.84,1817.29 1893.91,1817.9C1895.3,1820.36 1896.67,1822.83 1898.03,1825.31C1898.31,1825.83 1897.51,1826.29 1897.23,1825.77C1895.89,1823.3 1894.52,1820.85 1893.14,1818.4C1887.25,1822.24 1881.33,1826.03 1875.42,1829.83C1878.47,1833.47 1881.46,1837.17 1884.4,1840.9Z" style="fill:rgb(147,192,206);fill-rule:nonzero;"/>
                <path d="M1829.29,1861.24C1832.49,1865.34 1835.57,1869.54 1838.58,1873.78C1843.78,1870.16 1848.94,1866.5 1854.08,1862.82C1851.26,1858.37 1848.43,1853.92 1845.54,1849.52C1840.04,1853.32 1834.61,1857.21 1829.29,1861.24Z" style="fill:rgb(147,192,206);fill-rule:nonzero;"/>
                <path d="M1859.78,1839.95C1862.88,1843.96 1865.88,1848.06 1868.78,1852.21C1873.74,1848.62 1878.7,1845.02 1883.66,1841.43C1880.7,1837.69 1877.71,1833.98 1874.64,1830.32C1869.67,1833.51 1864.71,1836.71 1859.78,1839.95Z" style="fill:rgb(147,192,206);fill-rule:nonzero;"/>
                <path d="M1839.61,1839.03C1841.7,1842.08 1843.76,1845.15 1845.78,1848.25C1849.97,1845.36 1854.2,1842.53 1858.45,1839.73C1855.99,1836.58 1853.46,1833.48 1850.84,1830.44C1847.1,1833.31 1843.36,1836.17 1839.61,1839.03Z" style="fill:rgb(147,192,206);fill-rule:nonzero;"/>
                <path d="M1896.87,1814.86C1898.32,1813.91 1899.77,1812.94 1901.22,1811.97C1900.2,1809.66 1899.27,1807.33 1898.43,1804.98C1897.38,1802.01 1896.32,1798.73 1895.26,1795.24C1892.32,1797.7 1889.36,1800.13 1886.38,1802.55C1889.9,1806.64 1893.4,1810.73 1896.87,1814.86Z" style="fill:rgb(147,192,206);fill-rule:nonzero;"/>
                <path d="M1717.18,1770.27C1712.95,1772.32 1708.73,1774.4 1704.54,1776.53C1706.57,1780.22 1708.58,1783.92 1710.52,1787.66C1714.64,1785.76 1718.77,1783.89 1722.9,1782.02C1720.87,1778.16 1719,1774.23 1717.18,1770.27Z" style="fill:rgb(147,192,206);fill-rule:nonzero;"/>
                <path d="M1683.69,1801.71C1683.05,1802.05 1682.42,1802.38 1681.78,1802.72C1679.33,1809.63 1676.66,1815.98 1673.87,1821.8C1679.28,1819.21 1684.68,1816.62 1690.08,1814.01C1688.04,1809.86 1685.93,1805.75 1683.69,1801.71Z" style="fill:rgb(147,192,206);fill-rule:nonzero;"/>
                <path d="M1710.11,1788.86C1704.98,1791.22 1699.87,1793.63 1694.8,1796.11C1696.87,1800.29 1698.87,1804.53 1700.82,1808.78C1705.95,1806.27 1711.06,1803.75 1716.17,1801.2C1714.24,1797.04 1712.21,1792.93 1710.11,1788.86Z" style="fill:rgb(147,192,206);fill-rule:nonzero;"/>
                <path d="M1703.86,1817.63C1702.71,1815.09 1701.55,1812.55 1700.38,1810.01C1697.36,1811.49 1694.33,1812.96 1691.3,1814.43C1692.53,1816.95 1693.73,1819.47 1694.93,1822.01C1697.9,1820.53 1700.88,1819.07 1703.86,1817.63Z" style="fill:rgb(147,192,206);fill-rule:nonzero;"/>
                <path d="M1690.48,1814.83C1684.74,1817.61 1678.99,1820.37 1673.23,1823.12C1670.68,1828.34 1668.04,1833.12 1665.38,1837.49C1674.84,1832.24 1684.43,1827.23 1694.11,1822.41C1692.92,1819.87 1691.71,1817.34 1690.48,1814.83Z" style="fill:rgb(147,192,206);fill-rule:nonzero;"/>
                <path d="M1836.66,1841.29C1831.8,1845 1826.9,1848.69 1822.03,1852.4C1824.33,1855.05 1826.55,1857.77 1828.72,1860.53C1834.07,1856.48 1839.52,1852.57 1845.04,1848.76C1843.02,1845.68 1840.97,1842.62 1838.89,1839.58C1838.15,1840.15 1837.41,1840.72 1836.66,1841.29Z" style="fill:rgb(147,192,206);fill-rule:nonzero;"/>
                <path d="M1683.24,1800.91C1683.07,1800.61 1682.9,1800.31 1682.72,1800.01C1682.56,1800.49 1682.39,1800.97 1682.23,1801.45C1682.57,1801.27 1682.9,1801.09 1683.24,1800.91Z" style="fill:rgb(147,192,206);fill-rule:nonzero;"/>
                <path d="M1705.35,1743.86C1707.52,1747.65 1709.5,1751.55 1711.38,1755.49C1716.23,1753.23 1721.08,1750.97 1725.91,1748.67C1723.81,1744.92 1721.64,1741.2 1719.38,1737.53C1714.69,1739.6 1710,1741.69 1705.35,1743.86Z" style="fill:rgb(147,192,206);fill-rule:nonzero;"/>
                <path d="M1803.16,1866.02C1809,1861.42 1814.86,1856.86 1820.75,1852.33C1819.58,1850.99 1818.39,1849.66 1817.18,1848.36C1816.78,1847.92 1817.43,1847.27 1817.83,1847.71C1819.07,1849.05 1820.28,1850.4 1821.48,1851.77C1826.01,1848.29 1830.55,1844.81 1835.09,1841.34C1836.19,1840.5 1837.28,1839.67 1838.38,1838.83C1830.99,1828.1 1823.15,1817.69 1814.38,1807.96C1813.98,1807.52 1814.63,1806.87 1815.03,1807.31C1823.83,1817.07 1831.69,1827.51 1839.1,1838.28C1842.82,1835.44 1846.54,1832.6 1850.25,1829.75C1849.06,1828.38 1847.86,1827.03 1846.63,1825.69C1846.23,1825.26 1846.88,1824.61 1847.28,1825.04C1848.54,1826.41 1849.76,1827.8 1850.98,1829.19C1855.48,1825.74 1859.98,1822.26 1864.46,1818.77C1862.96,1817.16 1861.44,1815.56 1859.89,1813.99C1859.47,1813.57 1860.13,1812.92 1860.54,1813.34C1862.12,1814.94 1863.66,1816.57 1865.19,1818.21C1871.56,1813.24 1877.9,1808.23 1884.18,1803.15C1882.99,1801.17 1881.79,1799.2 1880.57,1797.24L1880.51,1797.17L1880.41,1796.98C1874.5,1787.44 1868.37,1778.03 1862.15,1768.68C1858.24,1771.85 1854.43,1775.13 1850.73,1778.54C1856.51,1787.49 1862,1796.64 1867.98,1805.38C1868.32,1805.87 1867.52,1806.33 1867.19,1805.84C1861.25,1797.15 1855.79,1788.06 1850.05,1779.18C1845,1783.88 1840.17,1788.82 1835.64,1794.08C1835.25,1794.52 1834.61,1793.87 1834.99,1793.42C1839.57,1788.12 1844.45,1783.13 1849.54,1778.39C1846.73,1774.05 1843.84,1769.76 1840.8,1765.6C1833.23,1770.99 1825.62,1776.33 1817.96,1781.6C1817.47,1781.94 1817.02,1781.14 1817.5,1780.81C1825.14,1775.56 1832.72,1770.23 1840.27,1764.86C1837.63,1761.29 1834.88,1757.82 1831.95,1754.49C1828.27,1757.81 1824.63,1761.2 1821.05,1764.65C1820.63,1765.06 1819.98,1764.41 1820.41,1764C1824,1760.53 1827.64,1757.14 1831.34,1753.8C1829.5,1751.74 1827.6,1749.72 1825.6,1747.77C1825.18,1747.36 1825.83,1746.71 1826.25,1747.13C1828.26,1749.08 1830.17,1751.11 1832.02,1753.19C1836.1,1749.51 1840.25,1745.91 1844.43,1742.36C1838.37,1733.4 1832.31,1724.42 1826.38,1715.37C1826.05,1714.88 1826.85,1714.42 1827.17,1714.91C1833.08,1723.92 1839.1,1732.85 1845.14,1741.77C1853.3,1734.86 1861.64,1728.16 1870.06,1721.55C1867.03,1717.33 1863.97,1713.13 1860.89,1708.93L1699.01,1708.38C1699.01,1708.38 1697.87,1726.08 1694.54,1748.12C1697.69,1746.51 1700.86,1744.95 1704.06,1743.45C1702.78,1741.25 1701.44,1739.08 1699.99,1736.97C1699.65,1736.48 1700.45,1736.02 1700.78,1736.51C1702.24,1738.64 1703.6,1740.83 1704.9,1743.06C1709.58,1740.88 1714.3,1738.78 1719.03,1736.69C1719.11,1736.44 1719.43,1736.29 1719.68,1736.4C1730.19,1731.77 1740.72,1727.19 1750.88,1721.83C1751.4,1721.55 1751.86,1722.35 1751.34,1722.62C1741.21,1727.96 1730.71,1732.54 1720.23,1737.16C1722.48,1740.82 1724.64,1744.53 1726.74,1748.27C1733.62,1744.98 1740.44,1741.6 1747.15,1737.97C1747.67,1737.69 1748.13,1738.48 1747.61,1738.77C1740.9,1742.4 1734.07,1745.78 1727.19,1749.07C1729.44,1753.11 1731.6,1757.19 1733.69,1761.31C1737.18,1759.65 1740.67,1757.99 1744.15,1756.32C1744.68,1756.07 1745.14,1756.86 1744.61,1757.11C1741.11,1758.79 1737.61,1760.46 1734.11,1762.12C1735.98,1765.84 1737.81,1769.59 1739.58,1773.36C1739.83,1773.89 1739.04,1774.36 1738.78,1773.82C1737.01,1770.02 1735.17,1766.26 1733.28,1762.52C1728.18,1764.95 1723.08,1767.39 1718,1769.87C1719.83,1773.83 1721.7,1777.78 1723.73,1781.64C1728.32,1779.57 1732.9,1777.49 1737.47,1775.39C1738.01,1775.15 1738.47,1775.94 1737.93,1776.19C1733.35,1778.29 1728.76,1780.37 1724.16,1782.45C1724.63,1783.32 1725.1,1784.2 1725.58,1785.06C1725.87,1785.58 1725.08,1786.04 1724.79,1785.52C1724.29,1784.63 1723.8,1783.73 1723.32,1782.83C1719.19,1784.7 1715.06,1786.58 1710.94,1788.47C1713.04,1792.53 1715.06,1796.63 1716.98,1800.79C1734.25,1792.17 1751.39,1783.3 1768.32,1774.03C1768.84,1773.74 1769.3,1774.54 1768.78,1774.82C1751.83,1784.11 1734.66,1792.99 1717.37,1801.62C1717.63,1802.21 1717.91,1802.8 1718.18,1803.4C1718.42,1803.93 1717.63,1804.4 1717.38,1803.86C1717.11,1803.25 1716.83,1802.64 1716.55,1802.04C1711.44,1804.58 1706.33,1807.1 1701.21,1809.61C1702.37,1812.15 1703.53,1814.69 1704.69,1817.24C1729.75,1805.15 1755.33,1794.08 1780.78,1782.88C1781.31,1782.65 1781.78,1783.44 1781.24,1783.68C1755.77,1794.89 1730.16,1805.97 1705.07,1818.07C1707.41,1823.23 1709.76,1828.38 1712.2,1833.48C1712.45,1834.02 1711.66,1834.48 1711.4,1833.95C1708.96,1828.82 1706.6,1823.65 1704.24,1818.46C1701.26,1819.91 1698.28,1821.36 1695.32,1822.84C1698.72,1830.07 1702.03,1837.35 1705.55,1844.48C1705.81,1845.01 1705.02,1845.47 1704.76,1844.94C1701.23,1837.79 1697.91,1830.49 1694.5,1823.24C1684.35,1828.29 1674.3,1833.55 1664.4,1839.08C1648.46,1864.63 1632.34,1875.3 1632.34,1875.3L1790.64,1875.85C1794.79,1872.51 1799.03,1869.28 1803.16,1866.02Z" style="fill:rgb(147,192,206);fill-rule:nonzero;"/>
                <path d="M1936.64,1863.8C1939.11,1866.91 1941.59,1870.01 1944.05,1873.11C1944.42,1873.57 1943.77,1874.22 1943.4,1873.76C1938.1,1867.08 1932.79,1860.41 1927.46,1853.75C1920.05,1858.35 1912.66,1862.97 1905.35,1867.73C1907.65,1870.6 1909.99,1873.45 1912.35,1876.27L1948.86,1876.39C1948.86,1876.39 1943.74,1871.64 1936.64,1863.8Z" style="fill:rgb(147,192,206);fill-rule:nonzero;"/>
                <path d="M1694.37,1749.24C1694.02,1751.54 1693.64,1753.89 1693.24,1756.27C1694.38,1758.33 1695.52,1760.38 1696.67,1762.43C1701.28,1760.21 1705.92,1758.04 1710.55,1755.88C1708.67,1751.93 1706.69,1748.04 1704.52,1744.25C1701.11,1745.85 1697.72,1747.51 1694.37,1749.24Z" style="fill:rgb(147,192,206);fill-rule:nonzero;"/>
                <path d="M1726.36,1749.47C1721.51,1751.78 1716.64,1754.05 1711.77,1756.32C1713.77,1760.53 1715.67,1764.79 1717.62,1769.03C1722.69,1766.57 1727.77,1764.13 1732.87,1761.7C1730.77,1757.58 1728.61,1753.51 1726.36,1749.47Z" style="fill:rgb(147,192,206);fill-rule:nonzero;"/>
                <path d="M1687.63,1784.36C1687.57,1784.26 1687.52,1784.16 1687.46,1784.06C1687.42,1784.21 1687.38,1784.37 1687.34,1784.52C1687.44,1784.47 1687.53,1784.42 1687.63,1784.36Z" style="fill:rgb(147,192,206);fill-rule:nonzero;"/>
                <path d="M1693.58,1795.69C1691.81,1792.14 1689.99,1788.63 1688.08,1785.16C1687.73,1785.36 1687.38,1785.55 1687.02,1785.75C1685.81,1790.32 1684.5,1794.68 1683.11,1798.86C1683.42,1799.4 1683.73,1799.95 1684.04,1800.49C1687.2,1798.85 1690.38,1797.26 1693.58,1795.69Z" style="fill:rgb(147,192,206);fill-rule:nonzero;"/>
                <path d="M1904.58,1868.23C1900.6,1870.83 1896.65,1873.49 1892.74,1876.2L1911.16,1876.26C1908.94,1873.61 1906.74,1870.93 1904.58,1868.23Z" style="fill:rgb(147,192,206);fill-rule:nonzero;"/>
                <path d="M1916.57,1840.22C1909.43,1845.05 1902.31,1849.91 1895.21,1854.79C1898.38,1858.88 1901.55,1862.96 1904.78,1867.01C1912.08,1862.25 1919.47,1857.63 1926.88,1853.03C1923.46,1848.75 1920.02,1844.48 1916.57,1840.22Z" style="fill:rgb(147,192,206);fill-rule:nonzero;"/>
                <path d="M1906.41,1826.33C1909.84,1830.49 1913.25,1834.67 1916.65,1838.87C1913.62,1834.53 1910.68,1829.97 1907.96,1825.25C1907.45,1825.61 1906.93,1825.97 1906.41,1826.33Z" style="fill:rgb(147,192,206);fill-rule:nonzero;"/>
                <path d="M1691.48,1765.97C1690.4,1771.58 1689.17,1777.25 1687.79,1782.78C1688,1783.16 1688.22,1783.54 1688.44,1783.92C1693.35,1781.25 1698.3,1778.67 1703.28,1776.14C1700.97,1771.96 1698.63,1767.79 1696.29,1763.62C1694.68,1764.4 1693.08,1765.18 1691.48,1765.97Z" style="fill:rgb(147,192,206);fill-rule:nonzero;"/>
                <path d="M1838.36,1875.05C1837.9,1875.37 1837.44,1875.69 1836.98,1876.01L1839.03,1876.01C1838.81,1875.69 1838.59,1875.37 1838.36,1875.05Z" style="fill:rgb(147,192,206);fill-rule:nonzero;"/>
                <path d="M1877.59,1866.99C1873.22,1870.02 1868.86,1873.06 1864.5,1876.1L1883.41,1876.17C1881.49,1873.09 1879.55,1870.03 1877.59,1866.99Z" style="fill:rgb(147,192,206);fill-rule:nonzero;"/>
                <path d="M1710.94,1756.71C1706.33,1758.86 1701.71,1761.02 1697.12,1763.23C1699.45,1767.39 1701.79,1771.55 1704.1,1775.72C1708.31,1773.59 1712.55,1771.5 1716.8,1769.43C1714.85,1765.19 1712.94,1760.92 1710.94,1756.71Z" style="fill:rgb(147,192,206);fill-rule:nonzero;"/>
                <path d="M1690.89,1813.61C1693.93,1812.14 1696.97,1810.66 1700,1809.18C1698.04,1804.93 1696.05,1800.7 1693.98,1796.51C1690.8,1798.07 1687.63,1799.66 1684.49,1801.29C1686.73,1805.33 1688.85,1809.45 1690.89,1813.61Z" style="fill:rgb(147,192,206);fill-rule:nonzero;"/>
                <path d="M1870.78,1720.99C1872.93,1719.3 1875.1,1717.63 1877.26,1715.95C1876.45,1711.57 1876,1708.99 1876,1708.99L1862.03,1708.94C1864.96,1712.94 1867.88,1716.96 1870.78,1720.99Z" style="fill:rgb(147,192,206);fill-rule:nonzero;"/>
                <path d="M1703.72,1776.94C1698.74,1779.47 1693.79,1782.05 1688.88,1784.72C1690.8,1788.2 1692.63,1791.72 1694.4,1795.28C1699.46,1792.81 1704.57,1790.41 1709.69,1788.04C1707.75,1784.32 1705.75,1780.62 1703.72,1776.94Z" style="fill:rgb(147,192,206);fill-rule:nonzero;"/>
                <path d="M1692.99,1757.72C1692.59,1760.07 1692.16,1762.45 1691.7,1764.84C1693.08,1764.16 1694.46,1763.49 1695.84,1762.82C1694.89,1761.13 1693.94,1759.42 1692.99,1757.72Z" style="fill:rgb(147,192,206);fill-rule:nonzero;"/>
                <path d="M1948.86,1877.23C1948.66,1877.23 1948.47,1877.16 1948.31,1877.02C1947.93,1876.69 1910.66,1843.68 1897.64,1805.25C1891.16,1786.11 1876.88,1717.37 1875.32,1709.82L1699.75,1709.22C1698.91,1715.77 1692.55,1764.46 1684.86,1800.67C1676.59,1839.61 1633.31,1875.59 1632.88,1875.95C1632.52,1876.24 1631.99,1876.19 1631.7,1875.83C1631.4,1875.48 1631.45,1874.95 1631.81,1874.65C1632.24,1874.3 1675.08,1838.68 1683.22,1800.32C1691.42,1761.7 1698.12,1708.8 1698.18,1708.27C1698.24,1707.85 1698.59,1707.54 1699.01,1707.54L1699.02,1707.54L1876,1708.15C1876.4,1708.15 1876.74,1708.43 1876.82,1708.82C1876.98,1709.57 1892.43,1784.65 1899.23,1804.71C1912.1,1842.71 1949.04,1875.44 1949.41,1875.76C1949.76,1876.07 1949.8,1876.6 1949.49,1876.95C1949.32,1877.13 1949.09,1877.23 1948.86,1877.23Z" style="fill:rgb(112,147,155);fill-rule:nonzero;"/>
                <rect x="1695.16" y="1699.14" width="186.16" height="9.7" style="fill:rgb(30,39,43);fill-rule:nonzero;"/>
                <path d="M1438.54,1797.03L1438.89,1796.76L1439.03,1797.11L1438.54,1797.03ZM1408.45,1762.16C1408.45,1759.72 1410.43,1757.75 1412.86,1757.75C1415.29,1757.75 1417.27,1759.72 1417.27,1762.16C1417.27,1764.26 1415.78,1766.03 1413.8,1766.46L1411.91,1766.46C1409.93,1766.03 1408.45,1764.26 1408.45,1762.16ZM1387.2,1793.54L1387.5,1793.74L1387.08,1793.81L1387.2,1793.54ZM1444.89,1802.23L1441.19,1793.41C1440.98,1792.92 1440.56,1792.56 1440.05,1792.42C1439.54,1792.28 1439,1792.39 1438.58,1792.71L1431.46,1798.12C1430.71,1798.69 1430.57,1799.76 1431.14,1800.51C1431.71,1801.26 1432.78,1801.41 1433.53,1800.84L1437.8,1797.59C1437.06,1801.27 1432.57,1818.86 1414.57,1819.91L1414.57,1769.78C1418.06,1769 1420.68,1765.88 1420.68,1762.16C1420.68,1757.84 1417.17,1754.33 1412.86,1754.33C1408.54,1754.33 1405.03,1757.84 1405.03,1762.16C1405.03,1765.88 1407.66,1769 1411.15,1769.78L1411.15,1819.9C1395.72,1818.62 1390.42,1800.17 1389.22,1794.91L1394.25,1798.33C1395.03,1798.86 1396.1,1798.66 1396.62,1797.88C1397.15,1797.1 1396.95,1796.03 1396.17,1795.5L1387.43,1789.56C1387.01,1789.28 1386.48,1789.19 1386,1789.33C1385.51,1789.47 1385.11,1789.82 1384.91,1790.29L1380.27,1800.78C1379.89,1801.64 1380.28,1802.65 1381.14,1803.03C1381.37,1803.13 1381.6,1803.18 1381.83,1803.18C1382.49,1803.18 1383.11,1802.8 1383.4,1802.16L1386.02,1796.22C1387.67,1802.98 1394.2,1823.38 1412.86,1823.38C1431.79,1823.38 1438.49,1807.6 1440.52,1800.66L1441.74,1803.55C1442.01,1804.21 1442.64,1804.6 1443.31,1804.6C1443.53,1804.6 1443.76,1804.56 1443.97,1804.47C1444.84,1804.1 1445.25,1803.1 1444.89,1802.23Z" style="fill:white;fill-rule:nonzero;"/>
                <path d="M2030,1714.24C2022.07,1714.24 2015.63,1720.69 2015.63,1728.61C2015.63,1736.54 2022.07,1742.99 2030,1742.99C2037.93,1742.99 2044.38,1736.54 2044.38,1728.61C2044.38,1720.69 2037.93,1714.24 2030,1714.24ZM2030,1757.96C2013.82,1757.96 2000.65,1744.8 2000.65,1728.61C2000.65,1712.43 2013.82,1699.26 2030,1699.26C2046.19,1699.26 2059.35,1712.43 2059.35,1728.61C2059.35,1744.8 2046.19,1757.96 2030,1757.96Z" style="fill:rgb(255,79,44);fill-rule:nonzero;"/>
                <path d="M2004.37,1730.4C2004.37,1730.4 2004.48,1717.97 2010.36,1711.41C2017.36,1703.62 2025.55,1702.82 2025.55,1702.82L2025.75,1709.82C2025.75,1709.82 2025.71,1709.81 2025.64,1709.81C2024.95,1709.81 2021.25,1710.09 2015.96,1715.61C2011.36,1720.41 2011.96,1728.4 2011.96,1728.4L2004.37,1730.4Z" style="fill:rgb(251,162,131);fill-rule:nonzero;"/>
                <path d="M2140.92,1716.02C2132.99,1716.02 2126.54,1722.47 2126.54,1730.4C2126.54,1738.33 2132.99,1744.78 2140.92,1744.78C2148.85,1744.78 2155.3,1738.33 2155.3,1730.4C2155.3,1722.47 2148.85,1716.02 2140.92,1716.02ZM2140.92,1759.75C2124.74,1759.75 2111.57,1746.58 2111.57,1730.4C2111.57,1714.22 2124.74,1701.05 2140.92,1701.05C2157.1,1701.05 2170.27,1714.22 2170.27,1730.4C2170.27,1746.58 2157.1,1759.75 2140.92,1759.75Z" style="fill:rgb(255,79,44);fill-rule:nonzero;"/>
                <path d="M2115.28,1732.19C2115.28,1732.19 2115.4,1719.75 2121.28,1713.2C2128.27,1705.41 2136.47,1704.61 2136.47,1704.61L2136.67,1711.6L2136.55,1711.6C2135.86,1711.6 2132.16,1711.88 2126.87,1717.4C2122.28,1722.19 2122.88,1730.19 2122.88,1730.19L2115.28,1732.19Z" style="fill:rgb(251,162,131);fill-rule:nonzero;"/>
                <path d="M2254.45,1714.24C2246.52,1714.24 2240.07,1720.69 2240.07,1728.61C2240.07,1736.54 2246.52,1742.99 2254.45,1742.99C2262.38,1742.99 2268.83,1736.54 2268.83,1728.61C2268.83,1720.69 2262.38,1714.24 2254.45,1714.24ZM2254.45,1757.96C2238.27,1757.96 2225.1,1744.8 2225.1,1728.61C2225.1,1712.43 2238.27,1699.26 2254.45,1699.26C2270.63,1699.26 2283.8,1712.43 2283.8,1728.61C2283.8,1744.8 2270.63,1757.96 2254.45,1757.96Z" style="fill:rgb(255,79,44);fill-rule:nonzero;"/>
                <path d="M2228.81,1730.4C2228.81,1730.4 2228.93,1717.97 2234.81,1711.41C2241.8,1703.62 2250,1702.82 2250,1702.82L2250.2,1709.82C2250.2,1709.82 2250.16,1709.81 2250.08,1709.81C2249.4,1709.81 2245.7,1710.09 2240.4,1715.61C2235.81,1720.41 2236.41,1728.4 2236.41,1728.4L2228.81,1730.4Z" style="fill:rgb(251,162,131);fill-rule:nonzero;"/>
                <path d="M1798.13,1707.83C1798.13,1711.46 1793.37,1714.41 1787.5,1714.41C1781.63,1714.41 1776.88,1711.46 1776.88,1707.83C1776.88,1704.19 1781.63,1701.25 1787.5,1701.25C1793.37,1701.25 1798.13,1704.19 1798.13,1707.83Z" style="fill:rgb(255,79,44);fill-rule:nonzero;"/>
                <path d="M1717.58,1709.44C1717.58,1713.07 1712.82,1716.02 1706.96,1716.02C1701.09,1716.02 1696.33,1713.07 1696.33,1709.44C1696.33,1705.8 1701.09,1702.85 1706.96,1702.85C1712.82,1702.85 1717.58,1705.8 1717.58,1709.44Z" style="fill:rgb(255,79,44);fill-rule:nonzero;"/>
                <path d="M1880.27,1708.38C1880.27,1712.01 1875.51,1714.96 1869.64,1714.96C1863.78,1714.96 1859.02,1712.01 1859.02,1708.38C1859.02,1704.74 1863.78,1701.8 1869.64,1701.8C1875.51,1701.8 1880.27,1704.74 1880.27,1708.38Z" style="fill:rgb(255,79,44);fill-rule:nonzero;"/>
            </g>
        </g>
    </g>
</svg>
