<?xml version="1.0" encoding="UTF-8" standalone="no"?>
<!DOCTYPE svg PUBLIC "-//W3C//DTD SVG 1.1//EN" "http://www.w3.org/Graphics/SVG/1.1/DTD/svg11.dtd">
<svg width="100%" height="100%" viewBox="0 0 1408 784" version="1.1" xmlns="http://www.w3.org/2000/svg" xmlns:xlink="http://www.w3.org/1999/xlink" xml:space="preserve" xmlns:serif="http://www.serif.com/" style="fill-rule:evenodd;clip-rule:evenodd;stroke-linejoin:round;stroke-miterlimit:2;">
    <g transform="matrix(1,0,0,1,-20181.2,-1006.25)">
        <g id="Artboard10" transform="matrix(1,0,0,1,-5873.62,1006.25)">
            <rect x="26054.8" y="0" width="1407.82" height="783.393" style="fill:none;"/>
            <g transform="matrix(1.43924,0,0,1.43924,22552,-1009.47)">
                <path d="M3063.86,868.915C3070.26,883.154 3078.61,900.613 3088.24,918.127C3117.64,971.641 3145.44,1001.35 3168.63,1004.04C3172.92,1004.53 3177.23,1004.79 3181.44,1004.79C3206.75,1004.79 3226.17,995.67 3238.01,988.023C3247.04,982.188 3253.16,976.294 3256.02,973.275C3249.29,972.729 3231.37,971.033 3210,967.022C3184.93,962.318 3149.83,953.373 3124.94,937.474C3100.03,921.555 3080.33,895.267 3068.2,876.017C3066.67,873.595 3065.23,871.22 3063.86,868.915ZM3181.44,1007.58C3177.12,1007.58 3172.7,1007.32 3168.31,1006.81C3154.75,1005.24 3139.95,995.284 3124.32,977.218C3111.94,962.908 3098.97,943.472 3085.77,919.449C3063.34,878.608 3047.78,838.062 3047.63,837.657L3050.22,836.614C3050.51,837.296 3079.56,905.161 3126.45,935.117C3173.41,965.121 3258.2,970.645 3259.05,970.697L3261.77,970.864L3260.05,972.975C3259.76,973.33 3252.82,981.767 3239.62,990.312C3227.45,998.19 3207.48,1007.58 3181.44,1007.58Z" style="fill:rgb(30,39,43);fill-rule:nonzero;"/>
                <path d="M2901.17,843.15L2938,1003.69L2968.8,995.24L2901.17,843.15ZM2935.93,1007.16L2895.21,829.69L2897.85,828.809L2972.67,997.076L2935.93,1007.16Z" style="fill:rgb(30,39,43);fill-rule:nonzero;"/>
                <path d="M2786.3,894.319C2792.1,895 2811.53,896.013 2825.22,896.617L2843.85,833.803C2822.04,855.672 2791.3,887.228 2786.3,894.319ZM2827.28,899.506L2826.19,899.458C2822.22,899.286 2787.33,897.744 2783.99,896.756C2783.46,896.598 2783.06,896.182 2782.92,895.644C2782.61,894.415 2782.22,892.885 2814.21,859.934C2829.76,843.916 2845.62,828.085 2845.77,827.928L2849.67,824.043L2827.28,899.506Z" style="fill:rgb(30,39,43);fill-rule:nonzero;"/>
                <path d="M2651.45,767.63C2651.45,770.228 2649.35,772.333 2646.75,772.333C2644.15,772.333 2642.04,770.228 2642.04,767.63C2642.04,765.033 2644.15,762.928 2646.75,762.928C2649.35,762.928 2651.45,765.033 2651.45,767.63Z" style="fill:rgb(30,39,43);fill-rule:nonzero;"/>
                <path d="M2598.61,767.63C2598.61,770.228 2596.5,772.333 2593.9,772.333C2591.31,772.333 2589.2,770.228 2589.2,767.63C2589.2,765.033 2591.31,762.928 2593.9,762.928C2596.5,762.928 2598.61,765.033 2598.61,767.63Z" style="fill:rgb(30,39,43);fill-rule:nonzero;"/>
                <rect x="2593.9" y="765.534" width="52.85" height="4.194" style="fill:rgb(30,39,43);fill-rule:nonzero;"/>
                <rect x="2577.97" y="807.473" width="81.36" height="4.194" style="fill:rgb(30,39,43);fill-rule:nonzero;"/>
                <rect x="2618.54" y="739.532" width="4.98" height="338.868" style="fill:rgb(30,39,43);fill-rule:nonzero;"/>
                <rect x="2845.19" y="827.28" width="52.85" height="4.194" style="fill:rgb(30,39,43);fill-rule:nonzero;"/>
                <rect x="2869.83" y="801.278" width="4.97" height="338.872" style="fill:rgb(30,39,43);fill-rule:nonzero;"/>
                <rect x="3258.97" y="965.345" width="20.66" height="6.747" style="fill:rgb(30,39,43);fill-rule:nonzero;"/>
                <path d="M3240.28,1164.04C3241.49,1160.4 3265.19,969.497 3265.19,969.497L3274.16,969.497L3270.05,1164.04L3240.28,1164.04Z" style="fill:rgb(30,39,43);fill-rule:nonzero;"/>
                <path d="M2999.68,1150.78L3027.02,839.588L3043.42,839.588L3053.14,1156.14L2999.68,1150.78Z" style="fill:rgb(21,61,21);fill-rule:nonzero;"/>
                <path d="M2973.25,1150.78L2973.25,990.844L2887.69,990.844L2887.69,901.369L2693.64,890.185L2721.6,983.015L2719.37,1140.11L2973.25,1150.78Z" style="fill:rgb(137,145,103);fill-rule:nonzero;"/>
                <path d="M2950.02,1139.38C2950.02,1144.34 2945.82,1148.36 2940.63,1148.36L2885.71,1148.36C2880.53,1148.36 2876.32,1144.34 2876.32,1139.38L2876.32,1029.46C2876.32,1024.5 2880.53,1020.48 2885.71,1020.48L2940.63,1020.48C2945.82,1020.48 2950.02,1024.5 2950.02,1029.46L2950.02,1139.38Z" style="fill:rgb(176,183,132);fill-rule:nonzero;"/>
                <path d="M2566.22,1101.89C2566.22,1101.89 2605.59,1136.15 2621.28,1160.38C2637.41,1185.27 2647.59,1207.57 2647.59,1207.57L3250.67,1207.57C3250.67,1207.57 3248.99,1200.02 3254.87,1190.8C3260.74,1181.57 3274.16,1177.38 3274.16,1177.38L3274.16,1154.73L2920.19,1137.12L2895.87,1055.75L2600.65,1028.48C2600.65,1028.48 2588.8,1037.59 2578.92,1055.73C2571.13,1070.03 2566.22,1101.89 2566.22,1101.89Z" style="fill:rgb(30,89,30);fill-rule:nonzero;"/>
                <path d="M2631.44,1050.63C2624.1,1050.63 2618.13,1056.6 2618.13,1063.93C2618.13,1071.27 2624.1,1077.24 2631.44,1077.24C2638.77,1077.24 2644.74,1071.27 2644.74,1063.93C2644.74,1056.6 2638.77,1050.63 2631.44,1050.63ZM2631.44,1091.1C2616.46,1091.1 2604.27,1078.91 2604.27,1063.93C2604.27,1048.96 2616.46,1036.77 2631.44,1036.77C2646.41,1036.77 2658.6,1048.96 2658.6,1063.93C2658.6,1078.91 2646.41,1091.1 2631.44,1091.1Z" style="fill:rgb(255,79,44);fill-rule:nonzero;"/>
                <path d="M2607.71,1065.59C2607.71,1065.59 2607.82,1054.08 2613.26,1048.02C2619.73,1040.81 2627.31,1040.07 2627.31,1040.07L2627.5,1046.54L2627.39,1046.54C2626.76,1046.54 2623.34,1046.79 2618.44,1051.9C2614.18,1056.34 2614.74,1063.74 2614.74,1063.74L2607.71,1065.59Z" style="fill:rgb(251,162,131);fill-rule:nonzero;"/>
                <path d="M2716.05,1058.46C2708.71,1058.46 2702.74,1064.43 2702.74,1071.76C2702.74,1079.1 2708.71,1085.07 2716.05,1085.07C2723.38,1085.07 2729.35,1079.1 2729.35,1071.76C2729.35,1064.43 2723.38,1058.46 2716.05,1058.46ZM2716.05,1098.92C2701.07,1098.92 2688.88,1086.74 2688.88,1071.76C2688.88,1056.79 2701.07,1044.6 2716.05,1044.6C2731.02,1044.6 2743.21,1056.79 2743.21,1071.76C2743.21,1086.74 2731.02,1098.92 2716.05,1098.92Z" style="fill:rgb(255,79,44);fill-rule:nonzero;"/>
                <path d="M2692.32,1073.42C2692.32,1073.42 2692.43,1061.91 2697.87,1055.85C2704.34,1048.64 2711.93,1047.89 2711.93,1047.89L2712.11,1054.37C2712.11,1054.37 2712.07,1054.36 2712,1054.36C2711.37,1054.36 2707.95,1054.62 2703.05,1059.73C2698.79,1064.17 2699.35,1071.57 2699.35,1071.57L2692.32,1073.42Z" style="fill:rgb(251,162,131);fill-rule:nonzero;"/>
                <rect x="2887.69" y="1171.63" width="386.47" height="5.75" style="fill:rgb(21,61,21);fill-rule:nonzero;"/>
                <path d="M2566.22,1101.89L2920.19,1137.12L2918.03,1129.88L2567.9,1092.53L2566.22,1101.89Z" style="fill:rgb(21,61,21);fill-rule:nonzero;"/>
                <path d="M2887.29,906.31L2680.32,891.855L2681.49,875.144L2888.45,889.599L2887.29,906.31Z" style="fill:rgb(21,61,21);fill-rule:nonzero;"/>
                <path d="M2926.9,1050.7C2926.9,1057.68 2921.24,1063.33 2914.27,1063.33C2907.29,1063.33 2901.64,1057.68 2901.64,1050.7C2901.64,1043.73 2907.29,1038.07 2914.27,1038.07C2921.24,1038.07 2926.9,1043.73 2926.9,1050.7Z" style="fill:rgb(47,61,68);fill-rule:nonzero;"/>
                <path d="M2697.17,901.878L2761.31,910.317L2765.22,970.712L2717.57,969.629L2697.17,901.878Z" style="fill:rgb(47,61,68);fill-rule:nonzero;"/>
                <path d="M2776.41,910.876L2781.44,970.712L2845.19,975.186L2845.19,919.823L2778.64,910.876L2776.41,910.876Z" style="fill:rgb(47,61,68);fill-rule:nonzero;"/>
                <path d="M2755.35,914.815L2758.97,970.57L2765.22,970.712L2761.31,910.317L2697.17,901.878L2698.82,907.359C2715.8,909.583 2755.35,914.815 2755.35,914.815Z" style="fill:rgb(30,39,43);fill-rule:nonzero;"/>
                <path d="M2778.64,910.876L2776.41,910.876L2776.83,915.932L2839.24,924.322L2839.24,974.768L2845.19,975.186L2845.19,919.823L2778.64,910.876Z" style="fill:rgb(30,39,43);fill-rule:nonzero;"/>
                <rect x="3015.47" y="831.69" width="37.67" height="10.936" style="fill:rgb(30,89,30);fill-rule:nonzero;"/>
                <path d="M2965.05,1162.15C2965.05,1164.52 2963.13,1166.44 2960.76,1166.44L2929.45,1166.44C2927.08,1166.44 2925.16,1164.52 2925.16,1162.15C2925.16,1159.78 2927.08,1157.86 2929.45,1157.86L2960.76,1157.86C2963.13,1157.86 2965.05,1159.78 2965.05,1162.15Z" style="fill:rgb(30,39,43);fill-rule:nonzero;"/>
                <path d="M3063.85,1164.04C3063.85,1166.4 3061.93,1168.32 3059.56,1168.32L3028.24,1168.32C3025.87,1168.32 3023.95,1166.4 3023.95,1164.04C3023.95,1161.67 3025.87,1159.75 3028.24,1159.75L3059.56,1159.75C3061.93,1159.75 3063.85,1161.67 3063.85,1164.04Z" style="fill:rgb(30,39,43);fill-rule:nonzero;"/>
                <path d="M3160.4,1164.04C3160.4,1166.4 3158.48,1168.32 3156.12,1168.32L3124.8,1168.32C3122.43,1168.32 3120.51,1166.4 3120.51,1164.04C3120.51,1161.67 3122.43,1159.75 3124.8,1159.75L3156.12,1159.75C3158.48,1159.75 3160.4,1161.67 3160.4,1164.04Z" style="fill:rgb(30,39,43);fill-rule:nonzero;"/>
                <path d="M3251.74,1164.04C3251.74,1166.4 3249.82,1168.32 3247.46,1168.32L3216.14,1168.32C3213.77,1168.32 3211.85,1166.4 3211.85,1164.04C3211.85,1161.67 3213.77,1159.75 3216.14,1159.75L3247.46,1159.75C3249.82,1159.75 3251.74,1161.67 3251.74,1164.04Z" style="fill:rgb(30,39,43);fill-rule:nonzero;"/>
                <rect x="2721.42" y="996.158" width="251.83" height="9.272" style="fill:rgb(176,183,132);fill-rule:nonzero;"/>
            </g>
        </g>
    </g>
</svg>
