<?xml version="1.0" encoding="UTF-8" standalone="no"?>
<!DOCTYPE svg PUBLIC "-//W3C//DTD SVG 1.1//EN" "http://www.w3.org/Graphics/SVG/1.1/DTD/svg11.dtd">
<svg width="100%" height="100%" viewBox="0 0 1408 784" version="1.1" xmlns="http://www.w3.org/2000/svg" xmlns:xlink="http://www.w3.org/1999/xlink" xml:space="preserve" xmlns:serif="http://www.serif.com/" style="fill-rule:evenodd;clip-rule:evenodd;stroke-linecap:round;stroke-linejoin:round;stroke-miterlimit:1.5;">
    <g transform="matrix(1,0,0,1,-21683,0)">
        <g id="Artboard7" transform="matrix(1,0,0,1,-0.820132,0)">
            <rect x="21683.8" y="0" width="1407.82" height="783.393" style="fill:none;"/>
            <g transform="matrix(-0.484208,4.16334e-17,4.16334e-17,0.484208,26831.9,-190.136)">
                <g transform="matrix(1,0,0,1,0.207349,0)">
                    <path d="M8475.46,1108.18C8442.61,1056.5 8396.07,1012.03 8341.26,971.917C8341.26,971.917 8330.95,1028.43 8309.58,1043.29C8276.25,1066.48 8169.96,1095.29 8141.26,1111.04C8133.35,1115.38 8137.36,1137.8 8137.36,1137.8L8475.46,1108.18Z" style="fill:rgb(131,157,153);"/>
                </g>
                <g transform="matrix(1.1163,-2.46926e-17,2.46926e-17,-1.31793,-946.013,2671.28)">
                    <path d="M8475.46,1108.18C8442.61,1056.5 8379.93,1029.26 8325.13,989.142C8325.13,989.142 8317.43,1033.6 8296.07,1048.46C8262.73,1071.65 8169.96,1095.29 8141.26,1111.04C8133.35,1115.38 8137.36,1137.8 8137.36,1137.8L8475.46,1108.18Z" style="fill:rgb(131,157,153);"/>
                </g>
                <g transform="matrix(1,0,0,1,0.207349,0)">
                    <path d="M8070.85,1137.8C8070.85,1137.8 7931.14,1048.25 7862.3,1004.12C7857.52,1001.06 7851.29,1001.54 7847.03,1005.29C7842.78,1009.04 7841.52,1015.16 7843.96,1020.29C7850.33,1033.69 7857.68,1049.16 7865.03,1064.61C7888.61,1114.2 7876.92,1173.39 7836.25,1210.3C7831.04,1215.03 7825.88,1219.72 7820.92,1224.22C7816.52,1228.21 7815.47,1234.72 7818.39,1239.89C7821.31,1245.06 7827.42,1247.52 7833.11,1245.82C7919.67,1219.89 8080.45,1171.75 8080.45,1171.75L8070.85,1137.8Z" style="fill:rgb(131,157,153);"/>
                </g>
                <g transform="matrix(0.622074,0,0,0.794056,3987.23,228.718)">
                    <path d="M10523.2,1111.06L10528.6,1130.39L10517.8,1130.39L10523.2,1111.06Z"/>
                </g>
                <g transform="matrix(0.622074,0,0,0.794056,3977.23,231.718)">
                    <path d="M10523.2,1111.06L10528.6,1130.39L10517.8,1130.39L10523.2,1111.06Z"/>
                </g>
                <g transform="matrix(0.622074,0,0,0.794056,3967.23,233.718)">
                    <path d="M10523.2,1111.06L10528.6,1130.39L10517.8,1130.39L10523.2,1111.06Z"/>
                </g>
                <g transform="matrix(0.622074,0,0,0.794056,3957.23,233.718)">
                    <path d="M10523.2,1111.06L10528.6,1130.39L10517.8,1130.39L10523.2,1111.06Z"/>
                </g>
                <g transform="matrix(0.622074,0,0,0.794056,3947.23,235.718)">
                    <path d="M10523.2,1111.06L10528.6,1130.39L10517.8,1130.39L10523.2,1111.06Z"/>
                </g>
                <g transform="matrix(0.622074,0,0,0.794056,3937.23,237.718)">
                    <path d="M10523.2,1111.06L10528.6,1130.39L10517.8,1130.39L10523.2,1111.06Z"/>
                </g>
                <g transform="matrix(0.622074,0,0,0.794056,3927.23,238.718)">
                    <path d="M10523.2,1111.06L10528.6,1130.39L10517.8,1130.39L10523.2,1111.06Z"/>
                </g>
                <g transform="matrix(0.622074,0,0,0.794056,3917.23,238.718)">
                    <path d="M10523.2,1111.06L10528.6,1130.39L10517.8,1130.39L10523.2,1111.06Z"/>
                </g>
                <g transform="matrix(0.622074,0,0,0.794056,3907.23,240.718)">
                    <path d="M10523.2,1111.06L10528.6,1130.39L10517.8,1130.39L10523.2,1111.06Z"/>
                </g>
                <g transform="matrix(0.622074,0,0,0.794056,3897.23,240.718)">
                    <path d="M10523.2,1111.06L10528.6,1130.39L10517.8,1130.39L10523.2,1111.06Z"/>
                </g>
                <g transform="matrix(0.622074,0,0,0.794056,3886.23,243.718)">
                    <path d="M10523.2,1111.06L10528.6,1130.39L10517.8,1130.39L10523.2,1111.06Z"/>
                </g>
                <g transform="matrix(0.622074,0,0,0.794056,3876.23,244.718)">
                    <path d="M10523.2,1111.06L10528.6,1130.39L10517.8,1130.39L10523.2,1111.06Z"/>
                </g>
                <g transform="matrix(0.622074,0,0,0.794056,3866.23,244.718)">
                    <path d="M10523.2,1111.06L10528.6,1130.39L10517.8,1130.39L10523.2,1111.06Z"/>
                </g>
                <g transform="matrix(0.622074,0,0,0.794056,3856.23,245.718)">
                    <path d="M10523.2,1111.06L10528.6,1130.39L10517.8,1130.39L10523.2,1111.06Z"/>
                </g>
                <g transform="matrix(0.622074,0,0,0.794056,3846.23,246.718)">
                    <path d="M10523.2,1111.06L10528.6,1130.39L10517.8,1130.39L10523.2,1111.06Z"/>
                </g>
                <g transform="matrix(0.622074,0,0,0.794056,3836.23,248.718)">
                    <path d="M10523.2,1111.06L10528.6,1130.39L10517.8,1130.39L10523.2,1111.06Z"/>
                </g>
                <g transform="matrix(0.622074,0,0,0.794056,3826.23,249.718)">
                    <path d="M10523.2,1111.06L10528.6,1130.39L10517.8,1130.39L10523.2,1111.06Z"/>
                </g>
                <g transform="matrix(0.622074,0,0,0.794056,3816.23,251.718)">
                    <path d="M10523.2,1111.06L10528.6,1130.39L10517.8,1130.39L10523.2,1111.06Z"/>
                </g>
                <g transform="matrix(0.622074,0,0,0.794056,3806.23,252.718)">
                    <path d="M10523.2,1111.06L10528.6,1130.39L10517.8,1130.39L10523.2,1111.06Z"/>
                </g>
                <g transform="matrix(0.622074,0,0,0.794056,3796.23,253.718)">
                    <path d="M10523.2,1111.06L10528.6,1130.39L10517.8,1130.39L10523.2,1111.06Z"/>
                </g>
                <g transform="matrix(0.622074,0,0,0.794056,3786.23,254.718)">
                    <path d="M10523.2,1111.06L10528.6,1130.39L10517.8,1130.39L10523.2,1111.06Z"/>
                </g>
                <g transform="matrix(0.622074,0,0,0.794056,3776.23,255.718)">
                    <path d="M10523.2,1111.06L10528.6,1130.39L10517.8,1130.39L10523.2,1111.06Z"/>
                </g>
                <g transform="matrix(0.622074,0,0,0.794056,3766.23,256.718)">
                    <path d="M10523.2,1111.06L10528.6,1130.39L10517.8,1130.39L10523.2,1111.06Z"/>
                </g>
                <g transform="matrix(0.622074,0,0,0.794056,3756.23,257.718)">
                    <path d="M10523.2,1111.06L10528.6,1130.39L10517.8,1130.39L10523.2,1111.06Z"/>
                </g>
                <g transform="matrix(0.622074,0,0,0.794056,3746.23,258.718)">
                    <path d="M10523.2,1111.06L10528.6,1130.39L10517.8,1130.39L10523.2,1111.06Z"/>
                </g>
                <g transform="matrix(0.622074,0,0,0.794056,3736.23,259.718)">
                    <path d="M10523.2,1111.06L10528.6,1130.39L10517.8,1130.39L10523.2,1111.06Z"/>
                </g>
                <g transform="matrix(0.622074,0,0,0.794056,3726.23,260.718)">
                    <path d="M10523.2,1111.06L10528.6,1130.39L10517.8,1130.39L10523.2,1111.06Z"/>
                </g>
                <g transform="matrix(0.622074,0,0,0.794056,3716.23,261.718)">
                    <path d="M10523.2,1111.06L10528.6,1130.39L10517.8,1130.39L10523.2,1111.06Z"/>
                </g>
                <g transform="matrix(0.622074,0,0,0.794056,3706.23,262.718)">
                    <path d="M10523.2,1111.06L10528.6,1130.39L10517.8,1130.39L10523.2,1111.06Z"/>
                </g>
                <g transform="matrix(0.622074,0,0,0.794056,3696.23,263.718)">
                    <path d="M10523.2,1111.06L10528.6,1130.39L10517.8,1130.39L10523.2,1111.06Z"/>
                </g>
                <g transform="matrix(0.622074,0,0,0.794056,3686.23,264.718)">
                    <path d="M10523.2,1111.06L10528.6,1130.39L10517.8,1130.39L10523.2,1111.06Z"/>
                </g>
                <g transform="matrix(0.622074,0,0,0.794056,3676.23,265.718)">
                    <path d="M10523.2,1111.06L10528.6,1130.39L10517.8,1130.39L10523.2,1111.06Z"/>
                </g>
                <g transform="matrix(-0.622074,7.61821e-17,-9.72438e-17,-0.794056,16730.4,2035.56)">
                    <path d="M10523.2,1111.06L10528.6,1130.39L10517.8,1130.39L10523.2,1111.06Z"/>
                </g>
                <g transform="matrix(-0.622074,7.61821e-17,-9.72438e-17,-0.794056,16740.4,2034.56)">
                    <path d="M10523.2,1111.06L10528.6,1130.39L10517.8,1130.39L10523.2,1111.06Z"/>
                </g>
                <g transform="matrix(-0.622074,7.61821e-17,-9.72438e-17,-0.794056,16750.4,2033.56)">
                    <path d="M10523.2,1111.06L10528.6,1130.39L10517.8,1130.39L10523.2,1111.06Z"/>
                </g>
                <g transform="matrix(-0.622074,7.61821e-17,-9.72438e-17,-0.794056,16760.4,2032.56)">
                    <path d="M10523.2,1111.06L10528.6,1130.39L10517.8,1130.39L10523.2,1111.06Z"/>
                </g>
                <g transform="matrix(-0.622074,7.61821e-17,-9.72438e-17,-0.794056,16770.4,2031.56)">
                    <path d="M10523.2,1111.06L10528.6,1130.39L10517.8,1130.39L10523.2,1111.06Z"/>
                </g>
                <g transform="matrix(-0.622074,7.61821e-17,-9.72438e-17,-0.794056,16780.4,2030.56)">
                    <path d="M10523.2,1111.06L10528.6,1130.39L10517.8,1130.39L10523.2,1111.06Z"/>
                </g>
                <g transform="matrix(-0.622074,7.61821e-17,-9.72438e-17,-0.794056,16790.4,2029.56)">
                    <path d="M10523.2,1111.06L10528.6,1130.39L10517.8,1130.39L10523.2,1111.06Z"/>
                </g>
                <g transform="matrix(-0.622074,7.61821e-17,-9.72438e-17,-0.794056,16800.4,2028.56)">
                    <path d="M10523.2,1111.06L10528.6,1130.39L10517.8,1130.39L10523.2,1111.06Z"/>
                </g>
                <g transform="matrix(-0.622074,7.61821e-17,-9.72438e-17,-0.794056,16810.4,2027.56)">
                    <path d="M10523.2,1111.06L10528.6,1130.39L10517.8,1130.39L10523.2,1111.06Z"/>
                </g>
                <g transform="matrix(-0.622074,7.61821e-17,-9.72438e-17,-0.794056,16820.4,2026.56)">
                    <path d="M10523.2,1111.06L10528.6,1130.39L10517.8,1130.39L10523.2,1111.06Z"/>
                </g>
                <g transform="matrix(-0.622074,7.61821e-17,-9.72438e-17,-0.794056,16830.4,2025.56)">
                    <path d="M10523.2,1111.06L10528.6,1130.39L10517.8,1130.39L10523.2,1111.06Z"/>
                </g>
                <g transform="matrix(-0.622074,7.61821e-17,-9.72438e-17,-0.794056,16840.4,2024.56)">
                    <path d="M10523.2,1111.06L10528.6,1130.39L10517.8,1130.39L10523.2,1111.06Z"/>
                </g>
                <g transform="matrix(-0.622074,7.61821e-17,-9.72438e-17,-0.794056,16850.4,2023.56)">
                    <path d="M10523.2,1111.06L10528.6,1130.39L10517.8,1130.39L10523.2,1111.06Z"/>
                </g>
                <g transform="matrix(-0.622074,7.61821e-17,-9.72438e-17,-0.794056,16860.4,2022.56)">
                    <path d="M10523.2,1111.06L10528.6,1130.39L10517.8,1130.39L10523.2,1111.06Z"/>
                </g>
                <g transform="matrix(-0.622074,7.61821e-17,-9.72438e-17,-0.794056,16870.8,2019.74)">
                    <path d="M10523.2,1111.06L10528.6,1130.39L10517.8,1130.39L10523.2,1111.06Z"/>
                </g>
                <g transform="matrix(-0.622074,7.61821e-17,-9.72438e-17,-0.794056,16880.8,2018.74)">
                    <path d="M10523.2,1111.06L10528.6,1130.39L10517.8,1130.39L10523.2,1111.06Z"/>
                </g>
                <g transform="matrix(-0.618728,0.0644281,-0.0822403,-0.789786,16947.6,1333.87)">
                    <path d="M10523.2,1111.06L10528.6,1130.39L10517.8,1130.39L10523.2,1111.06Z"/>
                </g>
                <g transform="matrix(-0.618542,0.0661962,-0.0844971,-0.789548,16957.6,1313.09)">
                    <path d="M10523.2,1111.06L10528.6,1130.39L10517.8,1130.39L10523.2,1111.06Z"/>
                </g>
                <g transform="matrix(-0.614628,0.0959622,-0.122492,-0.784551,16967.9,991.574)">
                    <path d="M10523.2,1111.06L10528.6,1130.39L10517.8,1130.39L10523.2,1111.06Z"/>
                </g>
                <g transform="matrix(-0.612985,0.105949,-0.13524,-0.782455,16974.6,884.25)">
                    <path d="M10523.2,1111.06L10528.6,1130.39L10517.8,1130.39L10523.2,1111.06Z"/>
                </g>
                <g transform="matrix(-0.612985,0.105949,-0.13524,-0.782455,16984.3,881.561)">
                    <path d="M10523.2,1111.06L10528.6,1130.39L10517.8,1130.39L10523.2,1111.06Z"/>
                </g>
                <g transform="matrix(-0.612985,0.105949,-0.13524,-0.782455,16994,878.873)">
                    <path d="M10523.2,1111.06L10528.6,1130.39L10517.8,1130.39L10523.2,1111.06Z"/>
                </g>
                <g transform="matrix(-0.612985,0.105949,-0.13524,-0.782455,17003.7,876.184)">
                    <path d="M10523.2,1111.06L10528.6,1130.39L10517.8,1130.39L10523.2,1111.06Z"/>
                </g>
                <g transform="matrix(-0.612985,0.105949,-0.13524,-0.782455,17013.4,873.496)">
                    <path d="M10523.2,1111.06L10528.6,1130.39L10517.8,1130.39L10523.2,1111.06Z"/>
                </g>
                <g transform="matrix(-0.612985,0.105949,-0.13524,-0.782455,17023,870.807)">
                    <path d="M10523.2,1111.06L10528.6,1130.39L10517.8,1130.39L10523.2,1111.06Z"/>
                </g>
                <g transform="matrix(-0.605382,0.143137,-0.18271,-0.77275,17007.1,466.213)">
                    <path d="M10523.2,1111.06L10528.6,1130.39L10517.8,1130.39L10523.2,1111.06Z"/>
                </g>
                <g transform="matrix(-0.605382,0.143137,-0.18271,-0.77275,17016.6,462.939)">
                    <path d="M10523.2,1111.06L10528.6,1130.39L10517.8,1130.39L10523.2,1111.06Z"/>
                </g>
                <g transform="matrix(-0.605382,0.143137,-0.18271,-0.77275,17026.1,459.665)">
                    <path d="M10523.2,1111.06L10528.6,1130.39L10517.8,1130.39L10523.2,1111.06Z"/>
                </g>
                <g transform="matrix(-0.605382,0.143137,-0.18271,-0.77275,17035.1,457.213)">
                    <path d="M10523.2,1111.06L10528.6,1130.39L10517.8,1130.39L10523.2,1111.06Z"/>
                </g>
                <g transform="matrix(-0.605382,0.143137,-0.18271,-0.77275,17044.6,453.939)">
                    <path d="M10523.2,1111.06L10528.6,1130.39L10517.8,1130.39L10523.2,1111.06Z"/>
                </g>
                <g transform="matrix(-0.605382,0.143137,-0.18271,-0.77275,17054.1,450.665)">
                    <path d="M10523.2,1111.06L10528.6,1130.39L10517.8,1130.39L10523.2,1111.06Z"/>
                </g>
                <g transform="matrix(1,0,0,1,0.207349,0)">
                    <path d="M7986.99,1144.48C7988.93,1134.78 8032.39,1141.06 8132.88,1134.4C8226.9,1128.17 8376.56,1108.77 8427.64,1105.82C8757.84,1086.72 9712.64,1073.47 9970.54,1098.22C10012.3,1102.22 10199.8,1111.39 10310.6,1106.89C10408.6,1102.92 10490.8,1074.79 10490.6,1084.69C10490.5,1088.06 10419.8,1108.59 10336.1,1123.62C10251.4,1138.82 10156,1140.12 10133.3,1150.39C10115.3,1158.56 10127.3,1164.2 10222,1156.72C10336.8,1147.65 10547.2,1116.8 10548.6,1121.56C10552,1133.46 10431.9,1147.47 10298.4,1171.75C10202.1,1189.26 10100.9,1216.97 10024.7,1230.1C9959.76,1241.29 9919.3,1238.59 9913.52,1240.16C9800.06,1270.98 9495.75,1285.88 9286.54,1277.74C9070.73,1269.34 8659.85,1267.38 8374.66,1240.16C8272.72,1230.43 8191.92,1188.59 8134.72,1182.44C8076.42,1176.17 7983.32,1162.83 7986.99,1144.48Z" style="fill:rgb(189,204,197);"/>
                    <clipPath id="_clip1">
                        <path d="M7986.99,1144.48C7988.93,1134.78 8032.39,1141.06 8132.88,1134.4C8226.9,1128.17 8376.56,1108.77 8427.64,1105.82C8757.84,1086.72 9712.64,1073.47 9970.54,1098.22C10012.3,1102.22 10199.8,1111.39 10310.6,1106.89C10408.6,1102.92 10490.8,1074.79 10490.6,1084.69C10490.5,1088.06 10419.8,1108.59 10336.1,1123.62C10251.4,1138.82 10156,1140.12 10133.3,1150.39C10115.3,1158.56 10127.3,1164.2 10222,1156.72C10336.8,1147.65 10547.2,1116.8 10548.6,1121.56C10552,1133.46 10431.9,1147.47 10298.4,1171.75C10202.1,1189.26 10100.9,1216.97 10024.7,1230.1C9959.76,1241.29 9919.3,1238.59 9913.52,1240.16C9800.06,1270.98 9495.75,1285.88 9286.54,1277.74C9070.73,1269.34 8659.85,1267.38 8374.66,1240.16C8272.72,1230.43 8191.92,1188.59 8134.72,1182.44C8076.42,1176.17 7983.32,1162.83 7986.99,1144.48Z"/>
                    </clipPath>
                    <g clip-path="url(#_clip1)">
                        <path d="M10141.1,1212.35C10141.1,1212.35 10012.2,1207.72 9955.03,1212.35C9908.01,1216.17 9845.49,1239.62 9798.32,1240.16C9713.24,1241.13 9529.76,1250.68 9355.3,1250.37C9012.43,1249.76 8612.94,1237.19 8423.18,1229.64C8377.76,1227.83 8293.73,1193.9 8234.5,1183.26C8142.76,1166.79 8080.45,1171.75 8080.45,1171.75L8018.58,1181.26L8050.24,1254.37L8803.01,1456.21L10052.5,1299.82L10141.1,1212.35Z" style="fill:rgb(169,183,174);"/>
                        <path d="M9748.86,1148.71C9748.86,1148.71 9611.62,1150.27 9554.52,1150.92C9551.64,1150.96 9549.15,1152.93 9548.46,1155.73C9547.77,1158.53 9549.07,1161.43 9551.6,1162.8C9578.45,1177.26 9622.77,1201.12 9638.77,1209.73C9642.61,1211.8 9647.12,1212.26 9651.3,1211.02C9672.54,1204.71 9738.32,1185.16 9738.32,1185.16" style="fill:rgb(131,157,153);"/>
                        <path d="M9915.16,1109.15C9915.16,1109.15 9875,1122.77 9923.67,1181.26" style="fill:none;stroke:rgb(156,157,156);stroke-width:8.33px;"/>
                        <g transform="matrix(1,0,0,1,-170.962,19.0069)">
                            <path d="M9919.36,1126.2C9919.36,1126.2 9904.6,1145.91 9916.54,1180.54" style="fill:none;stroke:rgb(156,157,156);stroke-width:8.33px;"/>
                        </g>
                        <g transform="matrix(1,0,0,1,-113.877,36.0569)">
                            <path d="M9889.88,1096.34C9889.88,1096.34 9866.07,1123.15 9923.67,1181.26" style="fill:none;stroke:rgb(156,157,156);stroke-width:8.33px;"/>
                        </g>
                    </g>
                </g>
                <g transform="matrix(1,0,0,1,0.207349,0)">
                    <path d="M8751.66,1243.27C8751.66,1243.27 8659.36,1283.92 8650.12,1294.28C8640.88,1304.64 8681.19,1310.35 8696.22,1305.44C8718.6,1298.12 8784.36,1250.36 8784.36,1250.36" style="fill:rgb(131,157,153);"/>
                </g>
                <g transform="matrix(1,0,0,1,0.207349,0)">
                    <circle cx="10044.8" cy="1142.36" r="34.179" style="fill:rgb(246,217,133);"/>
                </g>
                <g transform="matrix(0.5,0,0,0.5,5031.21,566.62)">
                    <circle cx="10044.8" cy="1142.36" r="34.179"/>
                </g>
            </g>
        </g>
    </g>
</svg>
