<?xml version="1.0" encoding="UTF-8" standalone="no"?>
<!DOCTYPE svg PUBLIC "-//W3C//DTD SVG 1.1//EN" "http://www.w3.org/Graphics/SVG/1.1/DTD/svg11.dtd">
<svg width="100%" height="100%" viewBox="0 0 1408 784" version="1.1" xmlns="http://www.w3.org/2000/svg" xmlns:xlink="http://www.w3.org/1999/xlink" xml:space="preserve" xmlns:serif="http://www.serif.com/" style="fill-rule:evenodd;clip-rule:evenodd;stroke-linejoin:round;stroke-miterlimit:2;">
    <g transform="matrix(1,0,0,1,-23140,0)">
        <g id="Artboard12" transform="matrix(1,0,0,1,-0.820132,0)">
            <rect x="23140.8" y="0" width="1407.82" height="783.393" style="fill:none;"/>
            <g transform="matrix(1.19601e-16,-1.95323,1.95323,1.19601e-16,23041.4,47033.9)">
                <g transform="matrix(0.993315,-0.115437,0.115437,0.993315,136.457,2745.85)">
                    <path d="M23838,191.113C23846,184.794 23868.2,164.404 23878.5,152.466C23887.5,142.11 23897.1,128.685 23898.5,116.561C23898.9,112.724 23893.6,106.931 23892.7,106.558C23891.7,106.185 23894.4,112.344 23892.7,114.323C23887.7,120.308 23873.7,134.587 23862.4,142.464C23850.5,150.696 23829.5,159.313 23821.7,163.717C23819.4,165.027 23814.8,166.362 23815.6,168.889C23817.1,173.333 23827.1,187.163 23830.5,190.38C23832.1,191.81 23836.4,192.418 23838,191.113Z" style="fill:rgb(94,0,10);"/>
                </g>
                <g transform="matrix(-0.96016,-0.279449,-0.279449,0.96016,46885.9,6657.52)">
                    <path d="M23838,191.113C23846,184.794 23868.2,164.404 23878.5,152.466C23887.5,142.11 23897.1,128.685 23898.5,116.561C23898.9,112.724 23893.6,106.931 23892.7,106.558C23891.7,106.185 23894.4,112.344 23892.7,114.323C23887.7,120.308 23873.7,134.587 23862.4,142.464C23850.5,150.696 23829.5,159.313 23821.7,163.717C23819.4,165.027 23814.8,166.362 23815.6,168.889C23817.1,173.333 23827.1,187.163 23830.5,190.38C23832.1,191.81 23836.4,192.418 23838,191.113Z" style="fill:rgb(94,0,10);"/>
                </g>
                <g transform="matrix(1,0,0,1,0.820132,0)">
                    <path d="M23850.2,627.278L23836.2,643.23L23827.4,655.785L23840.5,676.484L23921.7,676.484L23931.7,650.821L23914.8,630.604L23914.6,585.963L23918.5,547.493L23914.9,496.119L23913,436.254L23916.5,334.093L23979,296.626L23991.3,281.392L23951.9,273.283L23941.7,291.183L23903.9,303.628L23843.9,303.628L23808.9,273.283L23773.8,285.592L23784.5,297.677L23843.9,333.973L23843.9,582.633L23850.2,627.278Z"/>
                </g>
                <g transform="matrix(1,0,0,1,0.820132,0)">
                    <path d="M23837.4,659.279C23841.6,663.966 23846.7,666.868 23852.3,668.651L23855,698.867C23855,698.867 23858.6,716.805 23842.7,709.364C23826.8,701.922 23811.8,693.177 23811.8,693.177C23811.8,693.177 23794.8,685.371 23809.4,676.484C23820.9,669.432 23837.4,659.279 23837.4,659.279Z" style="fill:rgb(74,0,8);"/>
                </g>
                <g transform="matrix(-1,0,0,1,47762.6,0)">
                    <path d="M23837.4,659.279C23841.6,663.966 23846.7,666.868 23852.3,668.651L23855,698.867C23855,698.867 23858.6,716.805 23842.7,709.364C23826.8,701.922 23811.8,693.177 23811.8,693.177C23811.8,693.177 23794.8,685.371 23809.4,676.484C23820.9,669.432 23837.4,659.279 23837.4,659.279Z" style="fill:rgb(74,0,8);"/>
                </g>
                <g transform="matrix(1,0,0,1,0.820132,0)">
                    <path d="M23855.4,668.651C23872.5,671.183 23889.5,671.181 23906.4,668.651C23906.4,668.651 23909.3,718.777 23879.5,718.176C23849.8,717.576 23855.4,668.651 23855.4,668.651Z" style="fill:rgb(74,0,8);"/>
                </g>
                <g transform="matrix(0.97181,-0.235767,0.235767,0.97181,570.85,5653.81)">
                    <path d="M23983.1,419.412L23983.1,425.521C23983.1,427.207 23981.7,428.576 23980,428.576C23959.7,431.18 23939.5,431.261 23919.3,428.576C23917.6,428.576 23916.2,427.207 23916.2,425.521L23916.2,419.412C23916.2,417.726 23917.6,416.357 23919.3,416.357C23939.5,418.734 23959.8,419.042 23980,416.357C23981.7,416.357 23983.1,417.726 23983.1,419.412Z" style="fill:rgb(152,0,17);"/>
                </g>
                <g transform="matrix(0.438818,-0.207052,0.3395,0.719524,13336.2,5057.86)">
                    <path d="M23983.1,419.412L23983.1,425.521C23983.1,427.207 23981.7,428.576 23980,428.576C23966.9,435.68 23946.2,435.458 23919.3,428.576C23917.6,428.576 23916.2,427.207 23916.2,425.521L23916.2,419.412C23916.2,417.726 23917.6,416.357 23919.3,416.357C23939.5,418.734 23959.8,419.042 23980,416.357C23981.7,416.357 23983.1,417.726 23983.1,419.412Z" style="fill:rgb(112,0,12);"/>
                </g>
                <g transform="matrix(0.392358,-0.285459,0.468064,0.643344,14400,6938.7)">
                    <path d="M23983.1,419.412L23983.1,425.521C23983.1,427.207 23981.7,428.576 23980,428.576C23966.9,435.68 23946.2,435.458 23919.3,428.576C23917.6,428.576 23916.2,427.207 23916.2,425.521L23916.2,419.412C23916.2,417.726 23917.6,416.357 23919.3,416.357C23939.5,418.734 23959.8,419.042 23980,416.357C23981.7,416.357 23983.1,417.726 23983.1,419.412Z" style="fill:rgb(112,0,12);"/>
                </g>
                <g transform="matrix(0.473775,-0.379276,0.516764,0.645519,12422.1,9153.01)">
                    <path d="M23983.1,419.412L23983.1,425.521C23983.1,427.207 23981.7,428.576 23980,428.576C23966.9,435.68 23946.2,435.458 23919.3,428.576C23917.6,428.576 23916.2,427.207 23916.2,425.521L23916.2,419.412C23916.2,417.726 23917.6,416.357 23919.3,416.357C23939.5,418.734 23959.8,419.042 23980,416.357C23981.7,416.357 23983.1,417.726 23983.1,419.412Z" style="fill:rgb(112,0,12);"/>
                </g>
                <g transform="matrix(0.464099,-0.391057,0.532815,0.632335,12652.8,9406.04)">
                    <path d="M23983.1,419.412L23983.1,425.521C23983.1,427.207 23981.7,428.576 23980,428.576C23966.9,435.68 23946.2,435.458 23919.3,428.576C23917.6,428.576 23916.2,427.207 23916.2,425.521L23916.2,419.412C23916.2,417.726 23917.6,416.357 23919.3,416.357C23939.5,418.734 23959.8,419.042 23980,416.357C23981.7,416.357 23983.1,417.726 23983.1,419.412Z" style="fill:rgb(112,0,12);"/>
                </g>
                <g transform="matrix(0.97181,-0.235767,0.235767,0.97181,577.567,5627.67)">
                    <path d="M23983.1,419.412L23983.1,425.521C23983.1,427.207 23981.7,428.576 23980,428.576C23959.7,431.18 23939.5,431.261 23919.3,428.576C23917.6,428.576 23916.2,427.207 23916.2,425.521L23916.2,419.412C23916.2,417.726 23917.6,416.357 23919.3,416.357C23939.5,418.734 23959.8,419.042 23980,416.357C23981.7,416.357 23983.1,417.726 23983.1,419.412Z" style="fill:rgb(152,0,17);"/>
                </g>
                <g transform="matrix(0.939234,-0.343276,0.343276,0.939234,1303.24,8189.91)">
                    <path d="M23983.1,419.412L23983.1,425.521C23983.1,427.207 23981.7,428.576 23980,428.576C23959.7,431.18 23939.5,431.261 23919.3,428.576C23917.6,428.576 23916.2,427.207 23916.2,425.521L23916.2,419.412C23916.2,417.726 23917.6,416.357 23919.3,416.357C23939.5,418.734 23959.8,419.042 23980,416.357C23981.7,416.357 23983.1,417.726 23983.1,419.412Z" style="fill:rgb(152,0,17);"/>
                </g>
                <g transform="matrix(0.867265,-0.497847,0.497847,0.867265,2969.36,11892.7)">
                    <path d="M23983.1,419.412L23983.1,425.521C23983.1,427.207 23981.7,428.576 23980,428.576C23959.7,431.18 23939.5,431.261 23919.3,428.576C23917.6,428.576 23916.2,427.207 23916.2,425.521L23916.2,419.412C23916.2,417.726 23917.6,416.357 23919.3,416.357C23939.5,418.734 23959.8,419.042 23980,416.357C23981.7,416.357 23983.1,417.726 23983.1,419.412Z" style="fill:rgb(152,0,17);"/>
                </g>
                <g transform="matrix(0.867265,-0.497847,0.497847,0.867265,3054.14,11835.3)">
                    <path d="M23953.7,419.792C23953.7,419.792 23960.6,420.432 23963.8,419.782C23968.3,418.889 23979.9,415.604 23979.9,415.604C23975.5,422.525 23975.7,425.687 23965.8,426.959C23945.5,429.563 23939.5,431.261 23919.3,428.576C23917.6,428.576 23916.2,427.207 23916.2,425.521L23916.1,421.644C23916.1,419.958 23917.5,418.59 23919.1,418.59C23931.2,420.009 23941,416.356 23949.8,411.746C23955.8,408.635 23960.5,404.503 23968.6,403.421C23970.3,403.421 23954.6,414.15 23953.7,419.792Z" style="fill:rgb(97,6,16);"/>
                </g>
                <g transform="matrix(0.833153,-0.448417,0.429227,0.797498,3892.56,10718)">
                    <path d="M23953.7,419.792C23953.7,419.792 23960.6,420.432 23963.8,419.782C23968.3,418.889 23979.9,415.604 23979.9,415.604C23975.5,422.525 23975.7,425.687 23965.8,426.959C23945.5,429.563 23939.5,431.261 23919.3,428.576C23917.6,428.576 23916.2,427.207 23916.2,425.521L23916.1,421.644C23916.1,419.958 23917.5,418.59 23919.1,418.59C23931.2,420.009 23941,416.356 23949.8,411.746C23955.8,408.635 23960.5,404.503 23968.6,403.421C23970.3,403.421 23954.6,414.15 23953.7,419.792Z" style="fill:rgb(97,6,16);"/>
                </g>
                <g transform="matrix(0.833153,-0.448417,0.429227,0.797498,3896.75,10752.6)">
                    <path d="M23919.1,418.59C23931.2,420.009 23963.5,406.818 23966.7,406.167C23971.2,405.275 23982.8,401.99 23982.8,401.99C23975,409.92 23973.1,414.38 23963.6,417.631C23945.4,423.837 23940.4,426.888 23919.3,428.576C23917.6,428.576 23916.2,427.207 23916.2,425.521L23916.1,421.644C23916.1,419.958 23917.5,418.59 23919.1,418.59Z" style="fill:rgb(97,6,16);"/>
                </g>
                <g transform="matrix(0.888066,-0.326435,0.312466,0.850062,2627.15,7846.71)">
                    <path d="M23919.1,418.59C23931.2,420.009 23963.5,406.818 23966.7,406.167C23971.2,405.275 23982.8,401.99 23982.8,401.99C23975,409.92 23973.1,414.38 23963.6,417.631C23945.4,423.837 23940.4,426.888 23919.3,428.576C23917.6,428.576 23916.2,427.207 23916.2,425.521L23916.1,421.644C23916.1,419.958 23917.5,418.59 23919.1,418.59Z" style="fill:rgb(97,6,16);"/>
                </g>
                <g transform="matrix(-0.97181,-0.235767,-0.235767,0.97181,47188,5653.81)">
                    <path d="M23983.1,419.412L23983.1,425.521C23983.1,427.207 23981.7,428.576 23980,428.576C23959.7,431.18 23939.5,431.261 23919.3,428.576C23917.6,428.576 23916.2,427.207 23916.2,425.521L23916.2,419.412C23916.2,417.726 23917.6,416.357 23919.3,416.357C23939.5,418.734 23959.8,419.042 23980,416.357C23981.7,416.357 23983.1,417.726 23983.1,419.412Z" style="fill:rgb(152,0,17);"/>
                </g>
                <g transform="matrix(-0.438818,-0.207052,-0.3395,0.719524,34422.7,5057.86)">
                    <path d="M23983.1,419.412L23983.1,425.521C23983.1,427.207 23981.7,428.576 23980,428.576C23966.9,435.68 23946.2,435.458 23919.3,428.576C23917.6,428.576 23916.2,427.207 23916.2,425.521L23916.2,419.412C23916.2,417.726 23917.6,416.357 23919.3,416.357C23939.5,418.734 23959.8,419.042 23980,416.357C23981.7,416.357 23983.1,417.726 23983.1,419.412Z" style="fill:rgb(112,0,12);"/>
                </g>
                <g transform="matrix(-0.392358,-0.285459,-0.468064,0.643344,33358.9,6938.7)">
                    <path d="M23983.1,419.412L23983.1,425.521C23983.1,427.207 23981.7,428.576 23980,428.576C23966.9,435.68 23946.2,435.458 23919.3,428.576C23917.6,428.576 23916.2,427.207 23916.2,425.521L23916.2,419.412C23916.2,417.726 23917.6,416.357 23919.3,416.357C23939.5,418.734 23959.8,419.042 23980,416.357C23981.7,416.357 23983.1,417.726 23983.1,419.412Z" style="fill:rgb(112,0,12);"/>
                </g>
                <g transform="matrix(-0.473775,-0.379276,-0.516764,0.645519,35336.8,9153.01)">
                    <path d="M23983.1,419.412L23983.1,425.521C23983.1,427.207 23981.7,428.576 23980,428.576C23966.9,435.68 23946.2,435.458 23919.3,428.576C23917.6,428.576 23916.2,427.207 23916.2,425.521L23916.2,419.412C23916.2,417.726 23917.6,416.357 23919.3,416.357C23939.5,418.734 23959.8,419.042 23980,416.357C23981.7,416.357 23983.1,417.726 23983.1,419.412Z" style="fill:rgb(112,0,12);"/>
                </g>
                <g transform="matrix(-0.464099,-0.391057,-0.532815,0.632335,35106.1,9406.04)">
                    <path d="M23983.1,419.412L23983.1,425.521C23983.1,427.207 23981.7,428.576 23980,428.576C23966.9,435.68 23946.2,435.458 23919.3,428.576C23917.6,428.576 23916.2,427.207 23916.2,425.521L23916.2,419.412C23916.2,417.726 23917.6,416.357 23919.3,416.357C23939.5,418.734 23959.8,419.042 23980,416.357C23981.7,416.357 23983.1,417.726 23983.1,419.412Z" style="fill:rgb(112,0,12);"/>
                </g>
                <g transform="matrix(-0.97181,-0.235767,-0.235767,0.97181,47181.3,5627.67)">
                    <path d="M23983.1,419.412L23983.1,425.521C23983.1,427.207 23981.7,428.576 23980,428.576C23959.7,431.18 23939.5,431.261 23919.3,428.576C23917.6,428.576 23916.2,427.207 23916.2,425.521L23916.2,419.412C23916.2,417.726 23917.6,416.357 23919.3,416.357C23939.5,418.734 23959.8,419.042 23980,416.357C23981.7,416.357 23983.1,417.726 23983.1,419.412Z" style="fill:rgb(152,0,17);"/>
                </g>
                <g transform="matrix(-0.939234,-0.343276,-0.343276,0.939234,46455.6,8189.91)">
                    <path d="M23983.1,419.412L23983.1,425.521C23983.1,427.207 23981.7,428.576 23980,428.576C23959.7,431.18 23939.5,431.261 23919.3,428.576C23917.6,428.576 23916.2,427.207 23916.2,425.521L23916.2,419.412C23916.2,417.726 23917.6,416.357 23919.3,416.357C23939.5,418.734 23959.8,419.042 23980,416.357C23981.7,416.357 23983.1,417.726 23983.1,419.412Z" style="fill:rgb(152,0,17);"/>
                </g>
                <g transform="matrix(-0.867265,-0.497847,-0.497847,0.867265,44789.5,11892.7)">
                    <path d="M23983.1,419.412L23983.1,425.521C23983.1,427.207 23981.7,428.576 23980,428.576C23959.7,431.18 23939.5,431.261 23919.3,428.576C23917.6,428.576 23916.2,427.207 23916.2,425.521L23916.2,419.412C23916.2,417.726 23917.6,416.357 23919.3,416.357C23939.5,418.734 23959.8,419.042 23980,416.357C23981.7,416.357 23983.1,417.726 23983.1,419.412Z" style="fill:rgb(152,0,17);"/>
                </g>
                <g transform="matrix(-0.867265,-0.497847,-0.497847,0.867265,44704.8,11835.3)">
                    <path d="M23953.7,419.792C23953.7,419.792 23960.6,420.432 23963.8,419.782C23968.3,418.889 23979.9,415.604 23979.9,415.604C23975.5,422.525 23975.7,425.687 23965.8,426.959C23945.5,429.563 23939.5,431.261 23919.3,428.576C23917.6,428.576 23916.2,427.207 23916.2,425.521L23916.1,421.644C23916.1,419.958 23917.5,418.59 23919.1,418.59C23931.2,420.009 23941,416.356 23949.8,411.746C23955.8,408.635 23960.5,404.503 23968.6,403.421C23970.3,403.421 23954.6,414.15 23953.7,419.792Z" style="fill:rgb(97,6,16);"/>
                </g>
                <g transform="matrix(-0.833153,-0.448417,-0.429227,0.797498,43866.3,10718)">
                    <path d="M23953.7,419.792C23953.7,419.792 23960.6,420.432 23963.8,419.782C23968.3,418.889 23979.9,415.604 23979.9,415.604C23975.5,422.525 23975.7,425.687 23965.8,426.959C23945.5,429.563 23939.5,431.261 23919.3,428.576C23917.6,428.576 23916.2,427.207 23916.2,425.521L23916.1,421.644C23916.1,419.958 23917.5,418.59 23919.1,418.59C23931.2,420.009 23941,416.356 23949.8,411.746C23955.8,408.635 23960.5,404.503 23968.6,403.421C23970.3,403.421 23954.6,414.15 23953.7,419.792Z" style="fill:rgb(97,6,16);"/>
                </g>
                <g transform="matrix(-0.833153,-0.448417,-0.429227,0.797498,43862.1,10752.6)">
                    <path d="M23919.1,418.59C23931.2,420.009 23963.5,406.818 23966.7,406.167C23971.2,405.275 23982.8,401.99 23982.8,401.99C23975,409.92 23973.1,414.38 23963.6,417.631C23945.4,423.837 23940.4,426.888 23919.3,428.576C23917.6,428.576 23916.2,427.207 23916.2,425.521L23916.1,421.644C23916.1,419.958 23917.5,418.59 23919.1,418.59Z" style="fill:rgb(97,6,16);"/>
                </g>
                <g transform="matrix(-0.888066,-0.326435,-0.312466,0.850062,45131.7,7846.71)">
                    <path d="M23919.1,418.59C23931.2,420.009 23963.5,406.818 23966.7,406.167C23971.2,405.275 23982.8,401.99 23982.8,401.99C23975,409.92 23973.1,414.38 23963.6,417.631C23945.4,423.837 23940.4,426.888 23919.3,428.576C23917.6,428.576 23916.2,427.207 23916.2,425.521L23916.1,421.644C23916.1,419.958 23917.5,418.59 23919.1,418.59Z" style="fill:rgb(97,6,16);"/>
                </g>
                <g transform="matrix(1,0,0,1,-2.17987,0)">
                    <path d="M23922,641.463C23922,641.463 23988.7,598.635 23988.7,651.805C23988.8,704.974 23927,655.68 23927,655.68C23926.1,650.867 23924.9,646.075 23922,641.463Z" style="fill:rgb(74,0,8);"/>
                </g>
                <g transform="matrix(-1,0,0,1,47765.5,0)">
                    <path d="M23922,641.463C23922,641.463 23988.7,598.635 23988.7,651.805C23988.8,704.974 23927,655.68 23927,655.68C23926.1,650.867 23924.9,646.075 23922,641.463Z" style="fill:rgb(74,0,8);"/>
                </g>
                <g transform="matrix(1,0,0,1,0.820132,0)">
                    <path d="M23843.9,298.999L23822.4,273.283C23822.4,273.283 23800.6,299.7 23777.8,293.131C23755,286.563 23837.5,333.973 23837.5,333.973L23843.9,298.999" style="fill:rgb(152,0,17);"/>
                </g>
                <g transform="matrix(0.855623,-0.5176,0.5176,0.855623,3315.9,12327.1)">
                    <ellipse cx="23751.2" cy="245.047" rx="15.282" ry="18.057" style="fill:rgb(66,0,7);"/>
                </g>
                <g transform="matrix(1,0,0,1,-2.63514,-0.536179)">
                    <path d="M23935.1,537.015L23935.1,540.203C23935.1,550.025 23927.1,557.999 23917.3,557.999C23917.3,557.999 23894.4,554.999 23883,554.999C23871.6,554.999 23848.7,557.999 23848.7,557.999C23838.9,557.999 23830.9,550.025 23830.9,540.203L23830.9,537.015C23830.9,527.193 23838.9,519.219 23848.7,519.219C23848.7,519.219 23871.6,516.219 23883,516.219C23894.4,516.219 23917.3,519.219 23917.3,519.219C23927.1,519.219 23935.1,527.193 23935.1,537.015Z" style="fill:rgb(101,0,11);"/>
                </g>
                <g transform="matrix(1,0,0,1,-2.63514,-40.5362)">
                    <path d="M23935.1,537.015L23935.1,540.203C23935.1,550.025 23927.1,557.999 23917.3,557.999C23917.3,557.999 23894.4,554.999 23883,554.999C23871.6,554.999 23848.7,557.999 23848.7,557.999C23838.9,557.999 23830.9,550.025 23830.9,540.203L23830.9,537.015C23830.9,527.193 23837.5,489.791 23847.4,489.791C23847.4,489.791 23868.9,492.772 23880.4,492.772C23891.8,492.772 23918.4,486.779 23918.4,486.779C23928.2,486.779 23935.1,527.193 23935.1,537.015Z" style="fill:rgb(115,0,13);"/>
                </g>
                <g transform="matrix(1,0,0,1,-2.63514,39.4638)">
                    <path d="M23935.1,537.015L23935.1,540.203C23935.1,550.025 23927.1,557.999 23917.3,557.999C23917.3,557.999 23894.4,554.999 23883,554.999C23871.6,554.999 23848.7,557.999 23848.7,557.999C23838.9,557.999 23830.9,550.025 23830.9,540.203L23830.9,537.015C23830.9,527.193 23838.9,519.219 23848.7,519.219C23848.7,519.219 23871.6,516.219 23883,516.219C23894.4,516.219 23917.3,519.219 23917.3,519.219C23927.1,519.219 23935.1,527.193 23935.1,537.015Z" style="fill:rgb(101,0,11);"/>
                </g>
                <g transform="matrix(1,0,0,1,-2.63514,79.4638)">
                    <path d="M23935.1,537.015L23935.1,540.203C23935.1,550.025 23927.1,557.999 23917.3,557.999C23917.3,557.999 23894.4,554.999 23883,554.999C23871.6,554.999 23848.7,557.999 23848.7,557.999C23838.9,557.999 23830.9,550.025 23830.9,540.203L23830.9,537.015C23830.9,527.193 23838.9,519.219 23848.7,519.219C23848.7,519.219 23871.6,516.219 23883,516.219C23894.4,516.219 23917.3,519.219 23917.3,519.219C23927.1,519.219 23935.1,527.193 23935.1,537.015Z" style="fill:rgb(101,0,11);"/>
                </g>
                <g transform="matrix(1.09384,0,0,1,-2247.87,119.464)">
                    <path d="M23925.1,536.015L23925.1,539.203C23925.1,549.025 23898.9,549.187 23887.5,549.187C23876.1,549.187 23850.9,548.025 23850.9,538.203L23850.9,535.015C23850.9,525.193 23858.9,517.219 23868.7,517.219C23868.7,517.219 23871.6,516.219 23883,516.219C23894.4,516.219 23907.3,518.219 23907.3,518.219C23917.1,518.219 23925.1,526.193 23925.1,536.015Z" style="fill:rgb(106,0,12);"/>
                </g>
                <g transform="matrix(0.993315,-0.115437,0.115437,0.993315,136.457,2745.85)">
                    <path d="M23780.5,240.616C23772.6,245.136 23759.6,242.67 23753.2,240.616C23748,238.927 23742.1,233.805 23742.2,228.295C23742.5,211.464 23755.1,169.421 23781.4,136.856C23802,111.474 23828,89.62 23870.2,95.616C23880.5,97.066 23883.8,100.741 23881.8,102.671C23880.9,103.577 23878.3,102.914 23874.9,103.522C23867.1,104.949 23858.2,116.054 23847.8,124.327C23831,137.836 23814.7,153.413 23819,163.717C23830.4,191.084 23840,183.803 23839.8,190.988C23839.2,204.368 23794.9,232.345 23780.5,240.616Z" style="fill:rgb(117,0,13);"/>
                </g>
                <g transform="matrix(-1,0,0,1,47761.5,0)">
                    <path d="M23843.9,298.999L23822.4,273.283C23822.4,273.283 23800.6,299.7 23777.8,293.131C23755,286.563 23837.5,333.973 23837.5,333.973L23843.9,298.999" style="fill:rgb(152,0,17);"/>
                </g>
                <g transform="matrix(-0.676893,-0.736082,-0.736082,0.676893,40258.1,17567.1)">
                    <ellipse cx="23751.2" cy="245.047" rx="15.282" ry="18.057" style="fill:rgb(66,0,7);"/>
                </g>
                <g transform="matrix(-0.96016,-0.279449,-0.279449,0.96016,46885.9,6657.52)">
                    <path d="M23780.5,240.616C23772.6,245.136 23759.6,242.67 23753.2,240.616C23748,238.927 23742.1,233.805 23742.2,228.295C23742.5,211.464 23755.1,169.421 23781.4,136.856C23802,111.474 23828,89.62 23870.2,95.616C23880.5,97.066 23883.8,100.741 23881.8,102.671C23880.9,103.577 23878.3,102.914 23874.9,103.522C23867.1,104.949 23858.2,116.054 23847.8,124.327C23831,137.836 23814.7,153.413 23819,163.717C23830.4,191.084 23840,183.803 23839.8,190.988C23839.2,204.368 23794.9,232.345 23780.5,240.616Z" style="fill:rgb(117,0,13);"/>
                </g>
                <g transform="matrix(1,0,0,1,1.82013,0)">
                    <path d="M23893.7,261.243C23893.7,261.243 23888.2,252.101 23888.3,247.107C23888.4,242.112 23899.1,229.603 23904.1,231.097C23904.6,231.242 23908.8,237.105 23913.4,246.191C23924,267.293 23941.1,305.777 23950.1,330.389C23962.9,365.612 23971.8,405.99 23981.4,442.431C23991,478.9 24000.9,520.482 24007,552.789C24012.2,580.369 24018.4,608.208 24018,636.273C24017.7,657.298 24016.7,699.575 24012.7,724.52C24010.7,737.384 24006.4,745.638 24004.1,743.993C24013,742.273 24015.7,668.209 24015.4,635.966C24015.2,607.171 24008.3,578.75 24002.6,550.533C23996.1,518.493 23985.6,479.187 23976.3,443.728C23966.9,407.952 23957.9,369.434 23946.1,335.876C23934.8,303.819 23905.4,242.384 23905.4,242.384C23905.4,242.384 23898.9,244.759 23898.6,246.63C23898.3,248.501 23899.1,259.191 23899.1,259.191L23893.7,261.243Z" style="fill:rgb(152,0,17);"/>
                    <clipPath id="_clip1">
                        <path d="M23893.7,261.243C23893.7,261.243 23888.2,252.101 23888.3,247.107C23888.4,242.112 23899.1,229.603 23904.1,231.097C23904.6,231.242 23908.8,237.105 23913.4,246.191C23924,267.293 23941.1,305.777 23950.1,330.389C23962.9,365.612 23971.8,405.99 23981.4,442.431C23991,478.9 24000.9,520.482 24007,552.789C24012.2,580.369 24018.4,608.208 24018,636.273C24017.7,657.298 24016.7,699.575 24012.7,724.52C24010.7,737.384 24006.4,745.638 24004.1,743.993C24013,742.273 24015.7,668.209 24015.4,635.966C24015.2,607.171 24008.3,578.75 24002.6,550.533C23996.1,518.493 23985.6,479.187 23976.3,443.728C23966.9,407.952 23957.9,369.434 23946.1,335.876C23934.8,303.819 23905.4,242.384 23905.4,242.384C23905.4,242.384 23898.9,244.759 23898.6,246.63C23898.3,248.501 23899.1,259.191 23899.1,259.191L23893.7,261.243Z"/>
                    </clipPath>
                    <g clip-path="url(#_clip1)">
                        <g transform="matrix(-1,0,0,1,47757.3,0)">
                            <rect x="23700" y="204.378" width="343.709" height="254.573" style="fill:rgb(41,0,4);"/>
                        </g>
                        <g transform="matrix(-1,0,0,0.638768,47825,261.146)">
                            <rect x="23700" y="204.378" width="343.709" height="254.573" style="fill:rgb(87,0,9);"/>
                        </g>
                    </g>
                </g>
                <g transform="matrix(-1,1.22465e-16,1.22465e-16,1,47758.1,-3.63776e-12)">
                    <path d="M23893.7,261.243C23893.7,261.243 23888.2,252.101 23888.3,247.107C23888.4,242.112 23899.1,229.603 23904.1,231.097C23904.6,231.242 23908.8,237.105 23913.4,246.191C23924,267.293 23941.1,305.777 23950.1,330.389C23962.9,365.612 23971.8,405.99 23981.4,442.431C23991,478.9 24000.9,520.482 24007,552.789C24012.2,580.369 24018.4,608.208 24018,636.273C24017.7,657.298 24016.7,699.575 24012.7,724.52C24010.7,737.384 24006.4,745.638 24004.1,743.993C24013,742.273 24015.7,668.209 24015.4,635.966C24015.2,607.171 24008.3,578.75 24002.6,550.533C23996.1,518.493 23985.6,479.187 23976.3,443.728C23966.9,407.952 23957.9,369.434 23946.1,335.876C23934.8,303.819 23905.4,242.384 23905.4,242.384C23905.4,242.384 23898.9,244.759 23898.6,246.63C23898.3,248.501 23899.1,259.191 23899.1,259.191L23893.7,261.243Z" style="fill:rgb(152,0,17);"/>
                    <clipPath id="_clip2">
                        <path d="M23893.7,261.243C23893.7,261.243 23888.2,252.101 23888.3,247.107C23888.4,242.112 23899.1,229.603 23904.1,231.097C23904.6,231.242 23908.8,237.105 23913.4,246.191C23924,267.293 23941.1,305.777 23950.1,330.389C23962.9,365.612 23971.8,405.99 23981.4,442.431C23991,478.9 24000.9,520.482 24007,552.789C24012.2,580.369 24018.4,608.208 24018,636.273C24017.7,657.298 24016.7,699.575 24012.7,724.52C24010.7,737.384 24006.4,745.638 24004.1,743.993C24013,742.273 24015.7,668.209 24015.4,635.966C24015.2,607.171 24008.3,578.75 24002.6,550.533C23996.1,518.493 23985.6,479.187 23976.3,443.728C23966.9,407.952 23957.9,369.434 23946.1,335.876C23934.8,303.819 23905.4,242.384 23905.4,242.384C23905.4,242.384 23898.9,244.759 23898.6,246.63C23898.3,248.501 23899.1,259.191 23899.1,259.191L23893.7,261.243Z"/>
                    </clipPath>
                    <g clip-path="url(#_clip2)">
                        <g transform="matrix(-1,0,0,1,47757.3,0)">
                            <rect x="23700" y="204.378" width="343.709" height="254.573" style="fill:rgb(41,0,4);"/>
                        </g>
                        <g transform="matrix(-1,0,0,0.638768,47825,261.146)">
                            <rect x="23700" y="204.378" width="343.709" height="254.573" style="fill:rgb(87,0,9);"/>
                        </g>
                    </g>
                </g>
                <g transform="matrix(1,0,5.55112e-17,1.23766,2.22228,-39.1512)">
                    <path d="M23871,232.06C23871,232.06 23864,209.452 23859.5,198.468C23855,187.541 23844.9,166.161 23844.9,166.161C23844.9,166.161 23856.2,186.519 23861,196.967C23865.8,207.364 23872.8,228.847 23872.8,228.847C23872.8,228.847 23862.4,187.575 23854.3,167.781C23846.2,147.648 23823.7,108.052 23823.7,108.052C23823.7,108.052 23848.2,146.592 23856.9,166.724C23865.4,186.689 23875.6,228.847 23875.6,228.847" style="fill:rgb(47,0,5);"/>
                </g>
                <g transform="matrix(-1,0,-5.55112e-17,1.23766,47756.5,-39.1512)">
                    <path d="M23871,232.06C23871,232.06 23864,209.452 23859.5,198.468C23855,187.541 23844.9,166.161 23844.9,166.161C23844.9,166.161 23856.2,186.519 23861,196.967C23865.8,207.364 23872.8,228.847 23872.8,228.847C23872.8,228.847 23862.4,187.575 23854.3,167.781C23846.2,147.648 23823.7,108.052 23823.7,108.052C23823.7,108.052 23848.2,146.592 23856.9,166.724C23865.4,186.689 23875.6,228.847 23875.6,228.847" style="fill:rgb(47,0,5);"/>
                </g>
                <g transform="matrix(1,0,0,0.592382,1.82013,107.246)">
                    <path d="M23876.1,231.396L23876.1,260.554C23876.1,261.961 23875.4,263.104 23874.6,263.104L23871.5,263.104C23870.7,263.104 23870,261.961 23870,260.554L23870,231.396C23870,229.989 23870.7,228.847 23871.5,228.847L23874.6,228.847C23875.4,228.847 23876.1,229.989 23876.1,231.396Z" style="fill:rgb(44,0,5);"/>
                </g>
                <g transform="matrix(1,0,0,0.592382,10.8201,107.246)">
                    <path d="M23876.1,231.396L23876.1,260.554C23876.1,261.961 23875.4,263.104 23874.6,263.104L23871.5,263.104C23870.7,263.104 23870,261.961 23870,260.554L23870,231.396C23870,229.989 23870.7,228.847 23871.5,228.847L23874.6,228.847C23875.4,228.847 23876.1,229.989 23876.1,231.396Z" style="fill:rgb(44,0,5);"/>
                </g>
                <g transform="matrix(1,0,0,1,0.820132,0)">
                    <path d="M23903.6,276.106C23903.6,276.106 23909.2,258.462 23906.6,255.717C23903.9,252.972 23893.2,258.761 23887.5,259.636C23882.6,260.402 23877.5,261.386 23872.5,260.969C23866.8,260.495 23856.1,254.135 23853.3,256.793C23850.5,259.45 23855.6,276.914 23855.6,276.914L23903.6,276.106Z" style="fill:rgb(115,0,13);"/>
                </g>
                <g transform="matrix(1.28354,0,0,1,-6776.63,4)">
                    <path d="M23921.7,318.042L23921.7,398.616C23921.7,409.102 23919.9,425.099 23915.4,432.97C23908.6,444.83 23896.9,446.242 23884.5,446.242C23874.3,446.242 23860.7,447.515 23854,438.92C23847.3,430.295 23847.4,411.781 23847.4,398.616L23847.4,318.042C23847.4,300.893 23861.8,259.328 23884.7,259.105C23908.6,258.872 23921.9,298.853 23921.7,318.042Z" style="fill:rgb(130,0,14);"/>
                </g>
                <g transform="matrix(1,0,0,1,0.820132,0)">
                    <path d="M23779.7,242.384L23819,273.283C23819,273.283 23803,297.888 23773.8,289.402C23759.6,285.253 23749.9,264.853 23749.9,264.853C23763,259.638 23771.7,251.239 23779.7,242.384Z" style="fill:rgb(125,0,14);"/>
                </g>
                <g transform="matrix(-1,0,0,1,47761.5,0)">
                    <path d="M23779.7,242.384L23819,273.283C23819,273.283 23803,297.888 23773.8,289.402C23759.6,285.253 23749.9,264.853 23749.9,264.853C23763,259.638 23771.7,251.239 23779.7,242.384Z" style="fill:rgb(125,0,14);"/>
                </g>
                <g transform="matrix(1,0,0,1,-1.70924,-1.75121)">
                    <ellipse cx="23868.9" cy="270.641" rx="4.348" ry="4.393" style="fill:rgb(64,0,7);"/>
                </g>
                <g transform="matrix(1,0,0,1,24.2908,-1.75121)">
                    <ellipse cx="23868.9" cy="270.641" rx="4.348" ry="4.393" style="fill:rgb(64,0,7);"/>
                </g>
            </g>
        </g>
    </g>
</svg>
