<?xml version="1.0" encoding="UTF-8" standalone="no"?>
<!DOCTYPE svg PUBLIC "-//W3C//DTD SVG 1.1//EN" "http://www.w3.org/Graphics/SVG/1.1/DTD/svg11.dtd">
<svg width="100%" height="100%" viewBox="0 0 1408 784" version="1.1" xmlns="http://www.w3.org/2000/svg" xmlns:xlink="http://www.w3.org/1999/xlink" xml:space="preserve" xmlns:serif="http://www.serif.com/" style="fill-rule:evenodd;clip-rule:evenodd;stroke-linecap:round;stroke-linejoin:round;stroke-miterlimit:1.5;">
    <g transform="matrix(1,0,0,1,-20226,0)">
        <g id="Artboard6" transform="matrix(1,0,0,1,-0.820132,0)">
            <rect x="20226.8" y="0" width="1407.82" height="783.393" style="fill:none;"/>
            <g transform="matrix(0.997923,0,0,0.997923,19688.2,-1302.76)">
                <g transform="matrix(0.607411,0,0,0.607411,-1940.95,1046.82)">
                    <path d="M4877.83,990.301L4986.74,811.848C5006.56,879.785 5080.65,946.823 5178.4,1013.47L4877.83,990.301Z" style="fill:rgb(86,101,117);"/>
                </g>
                <g transform="matrix(0.607411,0,0,0.607411,-1940.95,1046.82)">
                    <path d="M5521.23,1077.41L5586.71,1021.69C5586.71,1021.69 5728.77,1074.89 5718.38,1117.06C5707.99,1159.24 5521.23,1077.41 5521.23,1077.41Z" style="fill:rgb(86,101,117);"/>
                </g>
                <g transform="matrix(0.607411,0,0,0.607411,-1940.95,1046.82)">
                    <path d="M5739.14,1118.05L5776.83,1098.68L5774.97,1129.14L5739.14,1118.05Z" style="fill:rgb(86,101,117);"/>
                </g>
                <g transform="matrix(0.607411,0,0,0.607411,-1910.58,1052.89)">
                    <path d="M5739.14,1118.05L5776.83,1098.68L5774.97,1129.14L5739.14,1118.05Z" style="fill:rgb(86,101,117);"/>
                </g>
                <g transform="matrix(0.607411,0,0,0.607411,-1877.78,1057.14)">
                    <path d="M5739.14,1118.05L5776.83,1098.68L5774.97,1129.14L5739.14,1118.05Z" style="fill:rgb(86,101,117);"/>
                </g>
                <g transform="matrix(0.607411,0,0,0.607411,-1851.06,1059.57)">
                    <path d="M5739.14,1118.05L5776.83,1098.68L5774.97,1129.14L5739.14,1118.05Z" style="fill:rgb(86,101,117);"/>
                </g>
                <g transform="matrix(0.607411,0,0,0.607411,-1820.69,1060.18)">
                    <path d="M5739.14,1118.05L5776.83,1098.68L5774.97,1129.14L5739.14,1118.05Z" style="fill:rgb(86,101,117);"/>
                </g>
                <g transform="matrix(0.607411,0,0,-0.607411,-1820.69,2463.19)">
                    <path d="M5739.14,1118.05L5776.83,1098.68L5774.97,1129.14L5739.14,1118.05Z" style="fill:rgb(86,101,117);"/>
                </g>
                <g transform="matrix(0.607411,0,0,-0.607411,-1851.06,2467.44)">
                    <path d="M5739.14,1118.05L5776.83,1098.68L5774.97,1129.14L5739.14,1118.05Z" style="fill:rgb(86,101,117);"/>
                </g>
                <g transform="matrix(0.607411,0,0,-0.607411,-1881.43,2473.52)">
                    <path d="M5739.14,1118.05L5776.83,1098.68L5774.97,1129.14L5739.14,1118.05Z" style="fill:rgb(86,101,117);"/>
                </g>
                <g transform="matrix(0.78558,3.84866e-17,-3.84866e-17,-0.471314,-2946.49,2330.92)">
                    <path d="M5739.14,1118.05L5776.83,1098.68L5774.97,1129.14L5739.14,1118.05Z" style="fill:rgb(86,101,117);"/>
                </g>
                <g transform="matrix(0.78558,3.84866e-17,-3.84866e-17,-0.471314,-2979.29,2339.42)">
                    <path d="M5739.14,1118.05L5776.83,1098.68L5774.97,1129.14L5739.14,1118.05Z" style="fill:rgb(86,101,117);"/>
                </g>
                <g transform="matrix(0.78558,3.84866e-17,-3.84866e-17,-0.471314,-3087.03,2375.37)">
                    <path d="M5720.37,1113.07L5818.57,1095.85L5871.34,1190.18L5720.37,1113.07Z" style="fill:rgb(86,101,117);"/>
                </g>
                <g transform="matrix(0.607411,0,0,0.607411,-1940.95,1046.82)">
                    <path d="M6018.38,1148.49C6018.38,1148.49 6213.06,1016.59 6309.23,951.43C6313.94,948.246 6320.24,948.866 6324.23,952.905C6328.22,956.945 6328.76,963.255 6325.52,967.916C6303.28,999.88 6274.16,1041.73 6248.11,1079.18C6210.57,1133.14 6215.5,1205.92 6259.97,1254.33C6293.2,1290.52 6331.11,1331.79 6360.05,1363.29C6363.93,1367.52 6364.2,1373.93 6360.69,1378.47C6357.18,1383.01 6350.91,1384.36 6345.84,1381.67C6232.06,1321.24 5998.07,1196.97 5998.07,1196.97L6018.38,1148.49Z" style="fill:rgb(86,101,117);"/>
                </g>
                <g transform="matrix(0.607411,0,0,0.607411,-1940.95,1046.82)">
                    <path d="M4258.86,1171.75C4331.03,1114.59 4589.19,957.76 5003.84,986.936C5553.11,1025.59 5543.92,1083.96 5735.33,1114.76C5873.27,1136.96 6204.77,1145 6152.31,1171.75C6146.82,1174.55 5988.2,1199.05 5795.23,1247.82C5633.17,1288.78 5476.02,1360.9 5322.62,1365.6C5057.85,1373.71 4802.92,1361.17 4570.8,1329.88C4417.55,1309.23 4280.6,1274.02 4268.69,1240.16C4265.71,1231.67 4352.44,1238.61 4348.8,1229C4342.56,1212.57 4240.43,1186.34 4258.86,1171.75Z" style="fill:rgb(175,196,207);"/>
                    <clipPath id="_clip1">
                        <path d="M4258.86,1171.75C4331.03,1114.59 4589.19,957.76 5003.84,986.936C5553.11,1025.59 5543.92,1083.96 5735.33,1114.76C5873.27,1136.96 6204.77,1145 6152.31,1171.75C6146.82,1174.55 5988.2,1199.05 5795.23,1247.82C5633.17,1288.78 5476.02,1360.9 5322.62,1365.6C5057.85,1373.71 4802.92,1361.17 4570.8,1329.88C4417.55,1309.23 4280.6,1274.02 4268.69,1240.16C4265.71,1231.67 4352.44,1238.61 4348.8,1229C4342.56,1212.57 4240.43,1186.34 4258.86,1171.75Z"/>
                    </clipPath>
                    <g clip-path="url(#_clip1)">
                        <path d="M4608.34,1007.83C4608.34,1007.83 4693.56,1016.95 4712.7,1019C4715.03,1019.25 4717.03,1020.76 4717.9,1022.94C4718.63,1024.75 4719.6,1027.18 4720.73,1029.99C4723.72,1037.46 4730.97,1042.35 4739.02,1042.31C4747.07,1042.26 4754.28,1037.3 4757.19,1029.8C4759.03,1025.05 4760.74,1020.66 4762.14,1017.04C4762.58,1015.91 4763.73,1015.22 4764.93,1015.36C4766.14,1015.51 4767.09,1016.44 4767.25,1017.64C4767.25,1017.65 4767.25,1017.65 4767.25,1017.65C4768.32,1025.5 4774.53,1031.65 4782.39,1032.64C4790.25,1033.63 4797.79,1029.2 4800.76,1021.86C4800.98,1021.33 4801.19,1020.8 4801.4,1020.28C4802.22,1018.26 4804.33,1017.09 4806.47,1017.47C4808.62,1017.84 4810.21,1019.66 4810.29,1021.84C4810.37,1023.91 4810.45,1026.1 4810.54,1028.37C4810.89,1037.56 4817.61,1045.25 4826.67,1046.84C4835.73,1048.42 4844.67,1043.47 4848.12,1034.94C4848.19,1034.77 4848.26,1034.6 4848.33,1034.43C4849.44,1031.67 4852.36,1030.11 4855.27,1030.7C4858.18,1031.29 4860.25,1033.87 4860.2,1036.84C4860.14,1040.91 4860.07,1045.23 4859.99,1049.7C4859.84,1059.22 4866.47,1067.5 4875.79,1069.43C4885.11,1071.36 4894.48,1066.4 4898.12,1057.6C4901.43,1049.6 4904.59,1041.95 4907.44,1035.05C4908.61,1032.23 4911.62,1030.64 4914.61,1031.28C4917.59,1031.91 4919.7,1034.58 4919.62,1037.63C4919.46,1043.55 4919.29,1049.94 4919.11,1056.6C4918.86,1066.01 4925.28,1074.31 4934.45,1076.43C4943.63,1078.55 4953.04,1073.92 4956.95,1065.35C4964,1049.9 4970.77,1035.07 4976.09,1023.41C4977.3,1020.75 4980.18,1019.27 4983.05,1019.83C4985.92,1020.38 4988.03,1022.84 4988.16,1025.76C4988.63,1036.29 4989.2,1049.1 4989.79,1062.5C4990.21,1071.82 4997.06,1079.59 5006.26,1081.16C5015.45,1082.73 5024.5,1077.67 5027.98,1069.02C5033.68,1054.82 5039.19,1041.1 5043.67,1029.96C5044.78,1027.21 5047.63,1025.6 5050.55,1026.07C5053.47,1026.54 5055.68,1028.97 5055.86,1031.92C5056.46,1041.57 5057.16,1052.9 5057.89,1064.63C5058.45,1073.76 5065.19,1081.32 5074.2,1082.92C5083.2,1084.52 5092.14,1079.75 5095.81,1071.37C5101.36,1058.73 5106.8,1046.33 5111.4,1035.84C5112.61,1033.08 5115.6,1031.56 5118.54,1032.2C5121.49,1032.84 5123.57,1035.47 5123.52,1038.48C5123.38,1047.35 5123.21,1057.44 5123.04,1067.88C5122.89,1077.12 5129.14,1085.22 5138.1,1087.44C5147.06,1089.66 5156.36,1085.4 5160.53,1077.16C5168.45,1061.53 5176.18,1046.28 5182.15,1034.5C5183.46,1031.91 5186.35,1030.55 5189.18,1031.18C5192,1031.82 5194.04,1034.29 5194.12,1037.18C5194.49,1050.77 5194.96,1068.36 5195.44,1085.96C5195.69,1094.93 5201.93,1102.61 5210.65,1104.69C5219.38,1106.77 5228.42,1102.73 5232.68,1094.84C5243.9,1074.08 5255.43,1052.75 5263.27,1038.25C5264.59,1035.8 5267.34,1034.51 5270.07,1035.05C5272.79,1035.59 5274.84,1037.84 5275.13,1040.6C5276.73,1056.1 5279.03,1078.35 5281.27,1099.95C5282.18,1108.73 5288.78,1115.85 5297.47,1117.41C5306.16,1118.98 5314.83,1114.6 5318.74,1106.69C5327.11,1089.78 5335.75,1072.31 5342.58,1058.48C5343.91,1055.8 5346.93,1054.41 5349.82,1055.16C5352.72,1055.9 5354.7,1058.57 5354.57,1061.55C5354.21,1070.22 5353.79,1080.12 5353.35,1090.34C5352.97,1099.45 5358.86,1107.65 5367.62,1110.2C5376.38,1112.75 5385.74,1108.99 5390.31,1101.09C5397.45,1088.73 5404.41,1076.68 5410.1,1066.83C5411.57,1064.29 5414.6,1063.09 5417.41,1063.94C5420.22,1064.79 5422.08,1067.46 5421.9,1070.39C5421.49,1076.83 5421.04,1084.05 5420.56,1091.62C5419.98,1100.87 5425.87,1109.28 5434.76,1111.88C5443.64,1114.49 5453.15,1110.6 5457.65,1102.51C5461,1096.48 5464.24,1090.67 5467.21,1085.34C5468.68,1082.69 5471.82,1081.46 5474.7,1082.4C5477.58,1083.34 5479.39,1086.19 5479.02,1089.19C5478.68,1091.87 5478.34,1094.65 5477.98,1097.49C5476.85,1106.63 5482.16,1115.34 5490.8,1118.53C5499.44,1121.71 5509.13,1118.52 5514.2,1110.83C5518.68,1104.02 5522.95,1097.54 5526.7,1091.86C5528.3,1089.43 5531.34,1088.4 5534.08,1089.37C5536.82,1090.33 5538.55,1093.04 5538.28,1095.93C5537.43,1104.87 5536.44,1115.28 5535.45,1125.68C5534.87,1131.86 5538.57,1137.65 5544.43,1139.71C5550.29,1141.77 5556.8,1139.57 5560.21,1134.38C5566.76,1124.4 5573.38,1114.32 5578.91,1105.9C5580.49,1103.49 5583.52,1102.45 5586.25,1103.39C5588.99,1104.33 5590.74,1107.01 5590.5,1109.89C5590.33,1111.94 5590.16,1114.06 5589.98,1116.24C5589.44,1122.87 5593.64,1128.97 5600.02,1130.85C5606.41,1132.73 5613.24,1129.86 5616.37,1123.99C5617.38,1122.12 5618.35,1120.29 5619.28,1118.54C5620.62,1116.04 5623.45,1114.74 5626.22,1115.34C5628.98,1115.95 5631.01,1118.32 5631.18,1121.15C5631.59,1128.12 5632.07,1136.1 5632.55,1144.16C5632.92,1150.43 5637.41,1155.69 5643.54,1157.04C5649.67,1158.4 5655.96,1155.52 5658.94,1149.99C5662.39,1143.56 5665.83,1137.19 5668.9,1131.47C5670.27,1128.93 5673.19,1127.64 5676,1128.33C5678.8,1129.03 5680.78,1131.54 5680.8,1134.42C5680.85,1140.87 5680.91,1147.93 5680.96,1154.76C5680.99,1159.05 5683.87,1162.81 5688.01,1163.96C5692.15,1165.12 5696.55,1163.39 5698.81,1159.73C5703.33,1152.36 5708.11,1144.59 5712.31,1137.76C5713.81,1135.32 5716.77,1134.19 5719.51,1135.01C5722.26,1135.83 5724.11,1138.39 5724.03,1141.25C5723.91,1145.42 5723.78,1149.87 5723.65,1154.32C5723.52,1158.74 5726.42,1162.68 5730.68,1163.88C5734.93,1165.07 5739.46,1163.22 5741.65,1159.38C5745.26,1153.04 5748.9,1146.67 5752.08,1141.1C5753.44,1138.71 5756.19,1137.48 5758.89,1138.05C5761.58,1138.62 5763.59,1140.86 5763.87,1143.6C5764.5,1149.82 5765.2,1156.83 5765.89,1163.61C5766.31,1167.79 5769.39,1171.21 5773.5,1172.07C5777.61,1172.93 5781.81,1171.03 5783.87,1167.37C5787.18,1161.5 5790.6,1155.43 5793.61,1150.1C5794.94,1147.73 5797.64,1146.47 5800.32,1146.99C5802.99,1147.5 5805.03,1149.67 5805.39,1152.36C5806.22,1158.53 5807.15,1165.48 5808.02,1172.04C5808.55,1175.99 5811.47,1179.21 5815.35,1180.13C5819.24,1181.06 5823.29,1179.48 5825.53,1176.18C5830.52,1168.87 5835.99,1160.84 5840.45,1154.29C5841.93,1152.13 5844.57,1151.1 5847.11,1151.68C5849.65,1152.27 5851.57,1154.36 5851.95,1156.94C5852.43,1160.31 5852.96,1163.97 5853.5,1167.68C5854.04,1171.43 5857.05,1174.34 5860.82,1174.75C5864.58,1175.17 5868.15,1172.98 5869.49,1169.44C5870.47,1166.87 5871.43,1164.33 5872.36,1161.89C5873.33,1159.31 5875.86,1157.66 5878.61,1157.81C5881.37,1157.96 5883.7,1159.88 5884.4,1162.54C5884.92,1164.55 5885.45,1166.6 5885.98,1168.66C5886.9,1172.17 5889.97,1174.68 5893.59,1174.87C5897.21,1175.06 5900.54,1172.88 5901.81,1169.49C5902.23,1168.35 5902.66,1167.22 5903.08,1166.09C5904.08,1163.42 5906.74,1161.75 5909.58,1162.01C5912.42,1162.27 5914.74,1164.39 5915.24,1167.2C5915.3,1167.57 5915.37,1167.94 5915.43,1168.32C5916.09,1172 5919.12,1174.79 5922.85,1175.14C5926.58,1175.48 5930.08,1173.29 5931.39,1169.79C5931.66,1169.06 5931.93,1168.34 5932.2,1167.63C5933.19,1164.99 5935.8,1163.33 5938.61,1163.54C5941.42,1163.76 5943.74,1165.8 5944.32,1168.56C5944.67,1170.26 5945.04,1171.99 5945.4,1173.72C5946.14,1177.27 5949.09,1179.92 5952.7,1180.29C5956.3,1180.65 5959.73,1178.63 5961.16,1175.31C5962.48,1172.24 5963.8,1169.17 5965.05,1166.28C5966.1,1163.85 5968.55,1162.32 5971.2,1162.47C5973.85,1162.61 5976.13,1164.39 5976.91,1166.93C5977.99,1170.45 5979.13,1174.2 5980.23,1177.78C5981.2,1180.93 5983.94,1183.21 5987.21,1183.59C5990.48,1183.98 5993.68,1182.39 5995.34,1179.54C6002.51,1167.32 6011.08,1152.7 6011.08,1152.7L6151.85,1157.52L6022.18,1075.42L5115.18,948.104L4668.71,940.547L4607.25,983.352L4608.34,1007.83Z" style="fill:rgb(54,54,54);"/>
                        <path d="M4712.28,1085.53C4712.28,1085.53 4788.33,1203.63 4645.44,1358.33" style="fill:none;stroke:rgb(128,148,158);stroke-width:13.72px;"/>
                        <path d="M4618.11,1123.92C4618.11,1123.92 4746.31,1302.99 4575.14,1293.46C4459.02,1286.99 4351.58,1229 4351.58,1229" style="fill:none;stroke:rgb(128,148,158);stroke-width:13.72px;"/>
                        <path d="M4493.87,1084.3C4536.54,1079.62 4578.72,1114.12 4546.29,1173.91C4543.59,1178.89 4608.28,1214.96 4597.11,1259.5" style="fill:none;stroke:rgb(128,148,158);stroke-width:13.72px;"/>
                        <g transform="matrix(1,0,0,1,-80,90)">
                            <path d="M4501,1066.38C4528.87,1085.3 4569.98,1121.03 4537.56,1180.81C4534.86,1185.79 4582.2,1228.09 4571.02,1272.62" style="fill:none;stroke:rgb(128,148,158);stroke-width:13.72px;"/>
                        </g>
                    </g>
                </g>
                <g transform="matrix(0.607411,0,0,0.607411,-1940.95,1046.82)">
                    <path d="M4757.75,1102.79C4757.75,1102.79 4994.02,1099.75 4994.72,1123.92C4995.92,1165.35 4801.2,1173.91 4801.2,1173.91C4823.34,1146.52 4824.89,1121.19 4757.75,1102.79Z" style="fill:rgb(86,101,117);"/>
                </g>
                <g transform="matrix(0.607411,0,0,0.607411,-1940.95,1046.82)">
                    <path d="M4254.45,1168.51L4360.05,1229C4360.05,1229 4348.4,1230.76 4344.65,1229.88C4316.85,1223.37 4211.72,1192.3 4254.45,1168.51Z" style="fill:rgb(190,207,201);"/>
                </g>
                <g transform="matrix(0.362536,-0.229303,0.289666,0.457971,-1229.64,2233.79)">
                    <path d="M4254.45,1168.51L4365.15,1223.84C4365.15,1223.84 4205.97,1195.51 4254.45,1168.51Z" style="fill:rgb(190,207,201);"/>
                </g>
                <g transform="matrix(0.607411,0,0,0.607411,-1940.95,1046.82)">
                    <path d="M4845.89,1352.1C4872.42,1388.02 4903.29,1415.98 4947.4,1438.7C4947.4,1438.7 4952.89,1424.24 4952.44,1413.33C4952,1402.41 4935.96,1392.2 4931.67,1362.26C4931.59,1361.75 4903.9,1366.08 4868.57,1342.43" style="fill:rgb(86,101,117);"/>
                </g>
                <g transform="matrix(0.700261,0,0,0.700261,-2354.56,944.95)">
                    <circle cx="4449.86" cy="1131.45" r="55.747" style="fill:rgb(255,201,0);"/>
                </g>
                <g transform="matrix(0.347735,0,0,0.347735,-788.669,1340.11)">
                    <circle cx="4449.86" cy="1131.45" r="55.747"/>
                </g>
            </g>
        </g>
    </g>
</svg>
